<?xml version="1.0" encoding="utf-8"?>
<!-- Generator: Adobe Illustrator 27.5.0, SVG Export Plug-In . SVG Version: 6.00 Build 0)  -->
<svg version="1.1" xmlns="http://www.w3.org/2000/svg" xmlns:xlink="http://www.w3.org/1999/xlink" x="0px" y="0px"
	 viewBox="0 0 500 500" style="enable-background:new 0 0 500 500;" xml:space="preserve">
<g id="Background_Simple">
	<g>
		<path style="fill:#92E3A9;" d="M441.138,134.591c-2.824-1.872-5.615-3.781-8.387-5.729
			C402.909,107.888,263.271,12.487,204.402,21.238C138.304,31.063-1.931,248.115,33.797,312.427
			c35.729,64.312,214.372,175.964,261.713,158.099c47.34-17.864,174.177-214.372,182.216-262.606
			C484.59,166.736,451.08,141.181,441.138,134.591z"/>
		<path style="opacity:0.7;fill:#FFFFFF;" d="M441.138,134.591c-2.824-1.872-5.615-3.781-8.387-5.729
			C402.909,107.888,263.271,12.487,204.402,21.238C138.304,31.063-1.931,248.115,33.797,312.427
			c35.729,64.312,214.372,175.964,261.713,158.099c47.34-17.864,174.177-214.372,182.216-262.606
			C484.59,166.736,451.08,141.181,441.138,134.591z"/>
	</g>
</g>
<g id="Stars">
	<g>
		<polygon style="fill:none;stroke:#263238;stroke-miterlimit:10;" points="79.419,23.47 100.244,58.744 140.227,49.839 
			113.114,80.545 133.938,115.819 96.357,99.522 69.244,130.227 73.131,89.449 35.55,73.152 75.533,64.247 		"/>
		<polygon style="fill:none;stroke:#263238;stroke-miterlimit:10;" points="217.697,82.678 216.694,95.499 228.577,100.415 
			216.074,103.423 215.071,116.244 208.346,105.282 195.843,108.29 204.19,98.507 197.466,87.545 209.349,92.461 		"/>
		<polygon style="fill:none;stroke:#263238;stroke-miterlimit:10;" points="320.612,376.239 332.798,413.744 372.234,413.744 
			340.33,436.923 352.516,474.429 320.612,451.249 288.708,474.429 300.895,436.923 268.991,413.744 308.426,413.744 		"/>
		<polygon style="fill:none;stroke:#263238;stroke-miterlimit:10;" points="458.882,359.402 454.092,372.799 465.353,381.495 
			451.131,381.079 446.34,394.476 442.341,380.821 428.12,380.405 439.87,372.383 435.871,358.728 447.132,367.424 		"/>
		<polygon style="fill:none;stroke:#263238;stroke-miterlimit:10;" points="343.275,30.272 338.13,42.058 347.749,50.594 
			334.949,49.342 329.804,61.127 327.039,48.568 314.24,47.316 325.331,40.806 322.566,28.246 332.185,36.782 		"/>
		<polygon style="fill:none;stroke:#263238;stroke-miterlimit:10;" points="89.796,427.672 99.467,439.03 113.258,433.341 
			105.444,446.049 115.116,457.407 100.616,453.903 92.802,466.611 91.654,451.738 77.153,448.234 90.944,442.546 		"/>
	</g>
</g>
<g id="Ticket_2">
	<g>
		<path style="fill:#92E3A9;stroke:#263238;stroke-linecap:round;stroke-linejoin:round;stroke-miterlimit:10;" d="M32.14,225.606
			l267.768-46.454c0.957,5.32,5.981,8.906,11.313,8.083l0.186-0.032c5.402-0.937,9.017-6.057,8.115-11.453l136.673-23.711
			l30.349,174.936l-136.673,23.711c-0.002-0.011,0.007-0.024,0.005-0.035c-0.941-5.424-6.097-9.056-11.521-8.115l-0.186,0.032
			c-5.308,1.022-8.847,6.129-7.917,11.487l0.006,0.033L62.489,400.542L32.14,225.606z"/>
		<path style="fill:#FFFFFF;stroke:#263238;stroke-miterlimit:10;" d="M311.407,187.203l-0.186,0.032
			c-0.048,0.007-0.095,0.008-0.143,0.015l27.166,155.305l0.112-0.019c5.424-0.941,10.58,2.691,11.521,8.115
			c0.002,0.011-0.007,0.024-0.005,0.035l136.673-23.711l-30.349-174.936l-136.673,23.711
			C320.424,181.146,316.809,186.266,311.407,187.203z"/>
		
			<line style="fill:none;stroke:#263238;stroke-linecap:round;stroke-linejoin:round;stroke-miterlimit:10;stroke-dasharray:5,5;" x1="338.258" y1="342.556" x2="311.519" y2="188.427"/>
		<g>
			<g>
				<path style="fill:#263238;" d="M141.355,274.993l-5.883-37.434l8.846-1.547l7.897,20.984l0.627-22.475l8.524-1.491l7.173,37.208
					l-5.852,1.023l-5.035-24.714l0.013,25.592l-5.206,0.911l-8.984-24.213l3.823,25.116L141.355,274.993z"/>
				<path style="fill:#263238;" d="M184.717,267.979c-2.796,0.489-5.093,0.384-6.893-0.314c-1.8-0.698-3.215-1.907-4.243-3.627
					c-1.029-1.719-1.766-3.854-2.212-6.404l-2.426-13.869c-0.451-2.581-0.483-4.838-0.093-6.774c0.389-1.936,1.313-3.53,2.772-4.782
					c1.458-1.252,3.586-2.123,6.381-2.612c2.826-0.494,5.145-0.401,6.958,0.279c1.812,0.68,3.23,1.865,4.254,3.553
					c1.023,1.689,1.761,3.823,2.212,6.403l2.426,13.869c0.446,2.55,0.477,4.808,0.093,6.774c-0.385,1.967-1.312,3.586-2.783,4.856
					C189.691,266.602,187.542,267.484,184.717,267.979z M183.693,262.127c0.86-0.15,1.452-0.475,1.776-0.976
					c0.324-0.5,0.488-1.098,0.493-1.796c0.004-0.697-0.055-1.399-0.178-2.105l-3.143-17.97c-0.129-0.737-0.313-1.424-0.551-2.064
					c-0.239-0.639-0.595-1.138-1.07-1.499c-0.474-0.36-1.142-0.465-2.002-0.314c-0.799,0.14-1.36,0.46-1.684,0.959
					c-0.324,0.5-0.49,1.091-0.497,1.773c-0.007,0.682,0.054,1.391,0.183,2.128l3.143,17.97c0.124,0.707,0.298,1.388,0.524,2.045
					c0.225,0.658,0.568,1.167,1.027,1.53C182.173,262.172,182.833,262.278,183.693,262.127z"/>
				<path style="fill:#263238;" d="M205.538,263.767l-13.255-36.145l7.049-1.233l8.441,24.64l-0.701-25.994l7.464-1.306
					l-0.291,38.514L205.538,263.767z"/>
				<path style="fill:#263238;" d="M224.843,260.39l-6.528-37.321l8.248-1.443l6.528,37.321L224.843,260.39z"/>
				<path style="fill:#263238;" d="M238.666,257.972l-6.528-37.321l16.772-2.934l0.983,5.621l-8.524,1.491l1.62,9.261l6.497-1.136
					l0.999,5.713l-6.497,1.136l1.95,11.151l8.617-1.507l0.975,5.575L238.666,257.972z"/>
			</g>
			<g>
				<path style="fill:#263238;" d="M153.468,337.45l-6.528-37.321l5.805-1.016l10.792,16.632l-3.143-17.97l6.819-1.193l6.528,37.321
					l-5.575,0.975l-11.034-18.014l3.385,19.352L153.468,337.45z"/>
				<path style="fill:#263238;" d="M179.361,332.921l-6.528-37.321l8.248-1.443l6.528,37.321L179.361,332.921z"/>
				<path style="fill:#263238;" d="M203.003,329.355c-2.581,0.451-4.71,0.269-6.387-0.545c-1.678-0.814-3.003-2.141-3.973-3.983
					c-0.971-1.84-1.679-4.035-2.125-6.585l-2.192-12.532c-0.462-2.641-0.525-4.989-0.187-7.043c0.337-2.053,1.234-3.754,2.692-5.101
					c1.458-1.347,3.6-2.268,6.426-2.762c2.765-0.484,5.018-0.403,6.761,0.242c1.743,0.645,3.095,1.723,4.055,3.232
					c0.96,1.51,1.632,3.355,2.013,5.536l0.419,2.396l-8.063,1.41l-0.532-3.041c-0.14-0.798-0.323-1.526-0.548-2.183
					c-0.226-0.656-0.567-1.159-1.023-1.507c-0.457-0.347-1.115-0.445-1.975-0.295c-0.891,0.156-1.495,0.507-1.811,1.052
					c-0.316,0.546-0.466,1.182-0.45,1.906c0.016,0.726,0.091,1.473,0.225,2.24l3.022,17.279c0.145,0.829,0.365,1.591,0.66,2.282
					c0.295,0.693,0.704,1.222,1.228,1.589c0.523,0.368,1.2,0.479,2.029,0.334c0.86-0.15,1.48-0.497,1.86-1.038
					c0.38-0.541,0.598-1.197,0.653-1.966c0.055-0.77,0.01-1.569-0.135-2.398l-0.766-4.377l-3.363,0.588l-0.846-4.838l10.782-1.886
					l3.385,19.352l-5.437,0.951l-1.001-3.007c-0.309,1.131-0.879,2.124-1.71,2.982C205.86,328.5,204.631,329.071,203.003,329.355z"
					/>
				<path style="fill:#263238;" d="M220.137,325.788l-6.528-37.321l8.247-1.443l2.644,15.112l5.76-1.007l-2.643-15.112l8.294-1.451
					l6.528,37.321l-8.294,1.451l-2.853-16.311l-5.76,1.008l2.853,16.311L220.137,325.788z"/>
				<path style="fill:#263238;" d="M251.469,320.308l-5.456-31.193l-5.621,0.983l-1.072-6.128l19.49-3.409l1.072,6.128l-5.576,0.975
					l5.456,31.193L251.469,320.308z"/>
			</g>
		</g>
		<g>
			<path style="fill:#263238;" d="M450.415,314.428c0.137,0.781,0.077,1.429-0.179,1.943c-0.257,0.515-0.661,0.921-1.213,1.218
				c-0.552,0.298-1.202,0.512-1.95,0.643l-5.727,1.002c-0.76,0.133-1.447,0.15-2.063,0.051c-0.615-0.1-1.125-0.351-1.532-0.755
				c-0.406-0.404-0.675-0.986-0.808-1.745c-0.137-0.781-0.082-1.428,0.163-1.94c0.247-0.513,0.642-0.919,1.187-1.222
				c0.546-0.302,1.198-0.519,1.958-0.652l5.727-1.002c0.76-0.133,1.45-0.153,2.069-0.06c0.62,0.092,1.135,0.337,1.545,0.735
				C450.003,313.041,450.276,313.636,450.415,314.428z M449.471,314.593c-0.089-0.509-0.285-0.881-0.588-1.113
				c-0.304-0.231-0.679-0.367-1.128-0.406c-0.448-0.04-0.938-0.012-1.47,0.081l-5.905,1.033c-0.532,0.093-1.002,0.234-1.41,0.423
				c-0.409,0.188-0.715,0.441-0.916,0.756c-0.202,0.314-0.258,0.732-0.167,1.253c0.087,0.5,0.28,0.865,0.578,1.099
				c0.298,0.232,0.671,0.369,1.12,0.407c0.448,0.04,0.938,0.012,1.47-0.081l5.905-1.033c0.532-0.093,1.002-0.234,1.41-0.423
				c0.409-0.188,0.716-0.446,0.922-0.773C449.497,315.488,449.557,315.081,449.471,314.593z"/>
			<path style="fill:#263238;" d="M448.468,304.255l-11.585,2.026c0.109,0.048,0.23,0.161,0.361,0.339
				c0.132,0.179,0.257,0.377,0.372,0.597c0.117,0.22,0.222,0.42,0.314,0.599c0.093,0.18,0.15,0.296,0.17,0.347l-0.96,0.168
				c-0.069-0.144-0.164-0.312-0.281-0.504c-0.117-0.191-0.259-0.379-0.425-0.563c-0.166-0.182-0.348-0.358-0.545-0.524
				c-0.197-0.167-0.412-0.308-0.644-0.424l-0.168-0.96l13.179-2.305L448.468,304.255z"/>
			<path style="fill:#263238;" d="M447.193,296.966l-0.862,0.151l-6.071-2.594c-0.447-0.19-0.878-0.366-1.292-0.528
				c-0.413-0.163-0.84-0.281-1.277-0.355c-0.438-0.075-0.917-0.066-1.438,0.025c-0.705,0.123-1.233,0.365-1.584,0.721
				c-0.351,0.358-0.475,0.835-0.37,1.432c0.095,0.542,0.287,0.936,0.575,1.182c0.29,0.246,0.652,0.389,1.091,0.43
				c0.437,0.04,0.916,0.016,1.437-0.075l0.293-0.051l0.208,1.188l-0.325,0.057c-0.814,0.142-1.513,0.153-2.099,0.032
				s-1.06-0.388-1.422-0.8c-0.363-0.412-0.61-0.991-0.741-1.74c-0.175-0.998-0.01-1.798,0.494-2.401
				c0.504-0.602,1.282-0.995,2.334-1.179c0.532-0.093,1.033-0.102,1.505-0.028c0.472,0.074,0.931,0.194,1.38,0.362
				c0.448,0.168,0.902,0.345,1.359,0.534l5.557,2.432l-0.803-4.588l1.009-0.176L447.193,296.966z"/>
			<path style="fill:#263238;" d="M444.868,282.718c0.119,0.683,0.087,1.265-0.097,1.744c-0.184,0.48-0.5,0.861-0.948,1.147
				c-0.447,0.285-0.997,0.484-1.647,0.598l-0.325,0.057l-0.199-1.138c0.032-0.006,0.078-0.014,0.138-0.024
				c0.06-0.01,0.106-0.019,0.138-0.024c0.465-0.092,0.858-0.226,1.179-0.399c0.322-0.174,0.553-0.408,0.691-0.7
				c0.14-0.292,0.171-0.656,0.095-1.089c-0.072-0.413-0.223-0.747-0.452-1.003c-0.23-0.256-0.563-0.422-1.001-0.496
				c-0.437-0.074-0.987-0.053-1.649,0.063c-0.813,0.142-1.452,0.405-1.916,0.788c-0.465,0.382-0.643,0.939-0.538,1.67
				c0.004,0.022,0.013,0.076,0.028,0.163c0.015,0.088,0.025,0.141,0.028,0.163l-1.139,0.199c-0.004-0.021-0.013-0.075-0.028-0.163
				c-0.015-0.087-0.025-0.14-0.029-0.163c-0.123-0.705-0.408-1.174-0.858-1.409c-0.449-0.235-1.112-0.275-1.991-0.121
				c-0.682,0.119-1.22,0.345-1.608,0.675c-0.39,0.332-0.525,0.838-0.405,1.522c0.116,0.661,0.387,1.109,0.814,1.342
				c0.427,0.233,1.032,0.291,1.817,0.177c0.021-0.004,0.057-0.01,0.106-0.018c0.048-0.008,0.089-0.016,0.122-0.021l0.199,1.138
				l-0.309,0.054c-0.652,0.114-1.23,0.113-1.737-0.006c-0.507-0.119-0.931-0.383-1.271-0.792c-0.34-0.41-0.573-0.974-0.698-1.689
				c-0.121-0.694-0.08-1.288,0.125-1.783c0.203-0.494,0.535-0.89,0.991-1.188c0.456-0.298,1.005-0.503,1.644-0.615
				c0.922-0.161,1.666-0.112,2.231,0.147c0.566,0.259,0.961,0.653,1.188,1.184c0.03-0.34,0.15-0.673,0.362-1.002
				c0.211-0.328,0.531-0.621,0.961-0.881c0.43-0.259,0.992-0.45,1.686-0.572c0.737-0.129,1.409-0.139,2.015-0.034
				c0.605,0.107,1.105,0.363,1.501,0.77C444.474,281.392,444.737,281.969,444.868,282.718z"/>
			<path style="fill:#263238;" d="M442.884,271.377c0.127,0.727,0.065,1.341-0.189,1.844c-0.253,0.503-0.671,0.912-1.253,1.225
				c-0.582,0.315-1.301,0.546-2.158,0.696l-5.255,0.919c-0.814,0.142-1.544,0.17-2.191,0.081c-0.647-0.087-1.18-0.324-1.6-0.709
				c-0.419-0.385-0.694-0.946-0.823-1.684c-0.116-0.662-0.097-1.229,0.054-1.704c0.152-0.473,0.434-0.861,0.845-1.162
				c0.411-0.301,0.954-0.51,1.626-0.628c0.022-0.004,0.068-0.015,0.137-0.033c0.071-0.018,0.116-0.029,0.138-0.032l0.208,1.188
				c-0.846,0.148-1.425,0.386-1.736,0.714c-0.312,0.329-0.411,0.813-0.299,1.453c0.063,0.358,0.208,0.665,0.438,0.921
				c0.229,0.256,0.563,0.427,1.003,0.512c0.44,0.085,1.013,0.066,1.718-0.057l2.505-0.438c-0.229-0.161-0.458-0.414-0.686-0.76
				c-0.228-0.346-0.383-0.752-0.464-1.218c-0.127-0.727-0.091-1.32,0.108-1.78c0.2-0.46,0.571-0.826,1.116-1.101
				c0.544-0.274,1.278-0.492,2.199-0.653c0.803-0.141,1.526-0.161,2.17-0.061c0.644,0.1,1.17,0.349,1.58,0.747
				C442.483,270.056,442.753,270.629,442.884,271.377z M441.892,271.551c-0.076-0.434-0.232-0.773-0.471-1.016
				c-0.238-0.243-0.575-0.399-1.012-0.468c-0.437-0.069-0.986-0.046-1.648,0.07c-0.716,0.125-1.305,0.27-1.768,0.436
				c-0.463,0.165-0.79,0.401-0.982,0.708c-0.192,0.308-0.238,0.749-0.138,1.323c0.046,0.26,0.13,0.503,0.253,0.728
				c0.123,0.224,0.258,0.424,0.407,0.599c0.148,0.175,0.285,0.308,0.413,0.397l2.278-0.398c0.705-0.123,1.268-0.289,1.69-0.497
				c0.422-0.208,0.709-0.468,0.862-0.78C441.927,272.341,441.966,271.974,441.892,271.551z"/>
			<path style="fill:#263238;" d="M440.904,260.053c0.133,0.759,0.087,1.391-0.138,1.894c-0.225,0.504-0.599,0.907-1.121,1.21
				c-0.522,0.304-1.153,0.52-1.89,0.649c-0.576,0.101-1.065,0.128-1.47,0.081c-0.405-0.047-0.749-0.14-1.031-0.281
				c-0.281-0.14-0.519-0.312-0.71-0.513c-0.192-0.201-0.36-0.401-0.507-0.599c-0.124,0.57-0.41,1.061-0.857,1.474
				c-0.448,0.414-1.089,0.694-1.924,0.84c-0.641,0.112-1.227,0.114-1.76,0.006c-0.534-0.108-0.98-0.357-1.338-0.747
				c-0.359-0.39-0.602-0.943-0.727-1.659c-0.125-0.716-0.081-1.313,0.131-1.792c0.213-0.478,0.552-0.859,1.016-1.142
				c0.464-0.282,1.023-0.48,1.673-0.594c0.836-0.146,1.525-0.102,2.068,0.133c0.545,0.235,0.977,0.598,1.298,1.089
				c0.071-0.236,0.162-0.478,0.275-0.727c0.113-0.249,0.279-0.488,0.496-0.716c0.217-0.228,0.508-0.435,0.872-0.622
				c0.364-0.187,0.833-0.33,1.409-0.431c0.737-0.129,1.403-0.139,1.998-0.031c0.595,0.109,1.083,0.361,1.466,0.758
				C440.516,258.732,440.773,259.304,440.904,260.053z M433.289,261.385c-0.101-0.452-0.288-0.785-0.56-1.001
				c-0.272-0.215-0.608-0.344-1.007-0.386c-0.399-0.042-0.836-0.021-1.314,0.062c-0.758,0.133-1.311,0.375-1.658,0.726
				c-0.346,0.351-0.467,0.836-0.359,1.455c0.11,0.629,0.389,1.053,0.835,1.271c0.446,0.218,1.049,0.261,1.807,0.128
				c0.478-0.084,0.897-0.213,1.257-0.388c0.361-0.175,0.632-0.415,0.813-0.721C433.285,262.227,433.347,261.844,433.289,261.385z
				 M439.96,260.218c-0.076-0.434-0.239-0.774-0.488-1.021c-0.25-0.247-0.591-0.405-1.022-0.475
				c-0.431-0.07-0.956-0.051-1.574,0.057c-0.542,0.095-1.007,0.241-1.391,0.436c-0.385,0.196-0.678,0.454-0.879,0.774
				c-0.201,0.321-0.276,0.722-0.226,1.205c0.117,0.471,0.325,0.829,0.624,1.073c0.3,0.244,0.664,0.393,1.092,0.446
				s0.914,0.033,1.457-0.062c0.618-0.108,1.118-0.271,1.499-0.489c0.381-0.218,0.647-0.487,0.798-0.81
				C439.998,261.03,440.036,260.652,439.96,260.218z"/>
			<path style="fill:#263238;" d="M438.914,248.68c0.133,0.759,0.087,1.391-0.139,1.894c-0.225,0.503-0.599,0.907-1.121,1.21
				c-0.522,0.304-1.153,0.52-1.89,0.649c-0.576,0.101-1.065,0.128-1.47,0.081c-0.405-0.047-0.749-0.14-1.03-0.281
				c-0.281-0.14-0.519-0.312-0.71-0.512c-0.192-0.201-0.36-0.401-0.507-0.599c-0.124,0.57-0.41,1.061-0.857,1.475
				c-0.448,0.414-1.089,0.694-1.924,0.84c-0.641,0.112-1.227,0.114-1.76,0.006c-0.534-0.108-0.98-0.357-1.338-0.747
				c-0.359-0.39-0.602-0.943-0.727-1.658c-0.125-0.716-0.081-1.313,0.131-1.792c0.213-0.478,0.552-0.859,1.016-1.142
				c0.464-0.282,1.023-0.48,1.673-0.594c0.836-0.146,1.525-0.102,2.068,0.133c0.545,0.235,0.977,0.598,1.298,1.089
				c0.071-0.236,0.162-0.478,0.275-0.727c0.113-0.249,0.279-0.488,0.496-0.716c0.217-0.228,0.508-0.435,0.873-0.622
				c0.364-0.187,0.833-0.33,1.409-0.431c0.737-0.129,1.403-0.139,1.998-0.031c0.595,0.109,1.083,0.361,1.466,0.758
				C438.527,247.359,438.783,247.932,438.914,248.68z M431.299,250.012c-0.101-0.452-0.288-0.785-0.56-1.001
				c-0.272-0.215-0.608-0.343-1.007-0.386c-0.399-0.042-0.836-0.021-1.314,0.062c-0.758,0.133-1.311,0.375-1.658,0.726
				c-0.347,0.351-0.467,0.836-0.359,1.455c0.11,0.629,0.389,1.053,0.835,1.271c0.446,0.218,1.049,0.261,1.807,0.128
				c0.478-0.084,0.897-0.213,1.258-0.388c0.361-0.175,0.632-0.415,0.813-0.721C431.296,250.854,431.358,250.471,431.299,250.012z
				 M437.971,248.845c-0.076-0.434-0.239-0.774-0.488-1.021c-0.25-0.247-0.591-0.405-1.022-0.475
				c-0.431-0.07-0.956-0.051-1.574,0.057c-0.542,0.095-1.006,0.24-1.391,0.436c-0.385,0.196-0.678,0.454-0.879,0.774
				c-0.201,0.321-0.276,0.722-0.226,1.205c0.117,0.471,0.325,0.829,0.624,1.073c0.3,0.244,0.664,0.393,1.092,0.446
				c0.428,0.054,0.914,0.033,1.457-0.062c0.618-0.108,1.118-0.271,1.499-0.489c0.381-0.218,0.647-0.487,0.798-0.81
				C438.009,249.657,438.047,249.279,437.971,248.845z"/>
			<path style="fill:#263238;" d="M437.189,239.776l-12.669-0.433l0.697,3.986l-0.96,0.168l-0.911-5.206l0.585-0.102l13.055,0.433
				L437.189,239.776z"/>
			<path style="fill:#263238;" d="M435.294,227.984c0.12,0.683,0.087,1.265-0.097,1.744c-0.184,0.479-0.5,0.861-0.948,1.147
				c-0.447,0.285-0.997,0.485-1.647,0.598l-0.325,0.057l-0.199-1.139c0.032-0.006,0.078-0.014,0.138-0.024
				c0.06-0.01,0.106-0.019,0.138-0.024c0.465-0.092,0.858-0.226,1.179-0.399c0.322-0.174,0.553-0.407,0.691-0.7
				c0.14-0.292,0.171-0.656,0.095-1.089c-0.072-0.412-0.223-0.746-0.452-1.003c-0.23-0.256-0.563-0.421-1.001-0.496
				c-0.438-0.074-0.987-0.054-1.65,0.062c-0.813,0.142-1.452,0.405-1.916,0.788c-0.465,0.383-0.643,0.939-0.538,1.67
				c0.004,0.022,0.013,0.076,0.028,0.163c0.015,0.087,0.025,0.141,0.029,0.163l-1.139,0.199c-0.004-0.021-0.013-0.075-0.028-0.163
				c-0.015-0.087-0.025-0.141-0.029-0.163c-0.123-0.705-0.408-1.175-0.858-1.409c-0.449-0.235-1.112-0.275-1.991-0.121
				c-0.683,0.119-1.22,0.345-1.608,0.676c-0.39,0.331-0.525,0.838-0.405,1.521c0.116,0.662,0.387,1.109,0.814,1.342
				c0.427,0.233,1.032,0.292,1.817,0.177c0.021-0.004,0.057-0.01,0.106-0.018c0.048-0.008,0.089-0.016,0.122-0.021l0.199,1.139
				l-0.309,0.054c-0.651,0.114-1.23,0.112-1.736-0.007c-0.507-0.118-0.931-0.382-1.271-0.792c-0.34-0.41-0.573-0.973-0.698-1.689
				c-0.121-0.694-0.08-1.289,0.125-1.783c0.203-0.494,0.534-0.89,0.991-1.188c0.456-0.298,1.005-0.503,1.644-0.615
				c0.922-0.161,1.666-0.112,2.231,0.147c0.566,0.259,0.961,0.653,1.188,1.184c0.03-0.34,0.15-0.674,0.362-1.002
				c0.211-0.327,0.531-0.621,0.961-0.881c0.43-0.259,0.992-0.45,1.686-0.572c0.737-0.129,1.409-0.14,2.015-0.034
				c0.605,0.107,1.105,0.363,1.501,0.769C434.9,226.658,435.163,227.235,435.294,227.984z"/>
			<path style="fill:#263238;" d="M433.031,216.005l-3.857,0.675l0.694,3.97l-1.203,0.21l-8.773-2.322l-0.245-1.399l8.249-1.443
				l-0.265-1.513l1.073-0.188l0.265,1.513l3.857-0.675L433.031,216.005z M428.585,219.633l-0.484-2.766l-6.671,1.167
				L428.585,219.633z"/>
			<path style="fill:#263238;" d="M431.352,205.449c0.116,0.662,0.099,1.235-0.051,1.719c-0.15,0.485-0.436,0.879-0.858,1.182
				c-0.422,0.303-0.969,0.519-1.639,0.647c-0.022,0.004-0.065,0.011-0.131,0.023c-0.065,0.011-0.103,0.018-0.114,0.02l-0.205-1.171
				c0.836-0.146,1.409-0.383,1.72-0.712c0.312-0.329,0.406-0.845,0.282-1.55c-0.064-0.369-0.207-0.671-0.426-0.906
				c-0.22-0.236-0.551-0.387-0.994-0.455c-0.442-0.068-1.016-0.04-1.721,0.083l-2.489,0.436c0.224,0.128,0.448,0.355,0.672,0.679
				c0.224,0.324,0.384,0.757,0.479,1.299c0.127,0.727,0.089,1.321-0.116,1.781c-0.204,0.461-0.582,0.828-1.131,1.103
				c-0.551,0.275-1.281,0.493-2.193,0.652c-0.813,0.142-1.537,0.16-2.171,0.053c-0.633-0.107-1.156-0.362-1.567-0.766
				c-0.411-0.403-0.683-0.979-0.814-1.727c-0.125-0.716-0.061-1.325,0.192-1.828c0.253-0.502,0.668-0.911,1.245-1.224
				c0.577-0.313,1.294-0.545,2.151-0.695l5.255-0.919c0.803-0.141,1.531-0.167,2.183-0.08s1.19,0.315,1.611,0.682
				C430.945,204.143,431.221,204.701,431.352,205.449z M424.901,206.628c-0.082-0.467-0.232-0.837-0.454-1.111
				c-0.221-0.274-0.431-0.472-0.632-0.594l-2.262,0.396c-0.716,0.125-1.283,0.289-1.699,0.49c-0.418,0.202-0.703,0.455-0.857,0.762
				c-0.153,0.306-0.192,0.671-0.118,1.094c0.074,0.423,0.237,0.761,0.487,1.013c0.251,0.252,0.595,0.413,1.032,0.481
				c0.437,0.069,0.97,0.049,1.599-0.061c0.726-0.127,1.322-0.273,1.785-0.438c0.463-0.165,0.79-0.404,0.981-0.717
				C424.954,207.63,425,207.192,424.901,206.628z"/>
			<path style="fill:#263238;" d="M429.357,194.044c0.116,0.662,0.099,1.235-0.051,1.719c-0.15,0.485-0.436,0.879-0.858,1.182
				c-0.422,0.303-0.969,0.519-1.639,0.647c-0.022,0.004-0.065,0.011-0.13,0.023c-0.065,0.011-0.103,0.018-0.115,0.02l-0.205-1.171
				c0.836-0.146,1.409-0.383,1.72-0.712c0.312-0.329,0.406-0.845,0.282-1.55c-0.064-0.369-0.207-0.671-0.426-0.906
				c-0.22-0.236-0.551-0.387-0.994-0.455c-0.442-0.068-1.016-0.04-1.721,0.083l-2.49,0.435c0.224,0.128,0.448,0.355,0.672,0.679
				c0.224,0.324,0.384,0.757,0.479,1.299c0.127,0.727,0.089,1.321-0.116,1.781c-0.204,0.461-0.582,0.828-1.131,1.103
				c-0.551,0.275-1.281,0.492-2.193,0.652c-0.813,0.142-1.536,0.16-2.171,0.053c-0.633-0.107-1.156-0.362-1.567-0.766
				c-0.411-0.403-0.683-0.979-0.814-1.727c-0.125-0.716-0.061-1.325,0.192-1.828c0.253-0.502,0.668-0.911,1.245-1.224
				s1.294-0.545,2.151-0.695l5.255-0.919c0.803-0.141,1.531-0.167,2.183-0.08c0.652,0.087,1.19,0.315,1.611,0.682
				C428.95,192.737,429.226,193.295,429.357,194.044z M422.906,195.222c-0.082-0.466-0.232-0.837-0.455-1.111
				c-0.221-0.274-0.431-0.472-0.632-0.593l-2.262,0.396c-0.716,0.125-1.283,0.289-1.699,0.49c-0.418,0.202-0.703,0.455-0.857,0.762
				c-0.153,0.306-0.193,0.671-0.118,1.094c0.074,0.423,0.237,0.761,0.487,1.013c0.251,0.252,0.595,0.413,1.032,0.482
				c0.437,0.069,0.97,0.049,1.599-0.061c0.726-0.127,1.322-0.273,1.784-0.438c0.463-0.165,0.79-0.404,0.982-0.717
				C422.959,196.225,423.005,195.787,422.906,195.222z"/>
			<path style="fill:#263238;" d="M427.345,182.54c0.137,0.781,0.077,1.429-0.179,1.943c-0.257,0.515-0.661,0.921-1.213,1.218
				c-0.552,0.298-1.201,0.512-1.95,0.643l-5.727,1.002c-0.759,0.133-1.447,0.15-2.063,0.051c-0.615-0.099-1.125-0.351-1.532-0.755
				c-0.406-0.404-0.675-0.986-0.808-1.745c-0.137-0.781-0.082-1.428,0.163-1.94c0.247-0.513,0.642-0.92,1.186-1.222
				c0.546-0.302,1.198-0.519,1.958-0.652l5.727-1.002c0.759-0.133,1.449-0.153,2.069-0.06c0.62,0.093,1.135,0.338,1.546,0.736
				C426.933,181.154,427.207,181.748,427.345,182.54z M426.402,182.705c-0.089-0.51-0.285-0.881-0.588-1.113
				c-0.304-0.232-0.679-0.367-1.128-0.406c-0.448-0.039-0.938-0.012-1.47,0.081l-5.905,1.033c-0.532,0.093-1.002,0.234-1.41,0.423
				c-0.409,0.189-0.714,0.441-0.916,0.756c-0.202,0.315-0.258,0.732-0.167,1.253c0.087,0.499,0.28,0.865,0.578,1.098
				c0.298,0.233,0.671,0.369,1.12,0.408c0.448,0.039,0.938,0.012,1.47-0.081l5.905-1.033c0.532-0.093,1.002-0.234,1.41-0.423
				c0.409-0.189,0.716-0.447,0.922-0.773C426.427,183.601,426.487,183.193,426.402,182.705z"/>
		</g>
		<path style="fill:#263238;" d="M34.818,241.142l2.086,12.025c10.959-1.864,21.375,5.474,23.293,16.436
			c1.921,10.981-5.413,21.438-16.385,23.379l1.593,9.18c4.297-0.738,8.859,0.755,11.859,4.339
			c4.486,5.361,3.776,13.343-1.584,17.828c-1.771,1.482-3.829,2.385-5.951,2.752l1.592,9.179c0.007-0.001,0.014-0.004,0.021-0.005
			c10.994-1.923,21.465,5.43,23.388,16.424c1.923,10.994-5.43,21.465-16.424,23.388c-0.026,0.005-0.051,0.005-0.077,0.01
			l2.086,12.024c12.522-2.162,24.661-7.535,35.108-16.276c31.592-26.435,35.772-73.475,9.337-105.067
			C87.069,245.619,60.157,236.774,34.818,241.142z M106.143,336.038c-3.831,10.482-15.435,15.874-25.918,12.043
			c-10.482-3.832-15.874-15.435-12.043-25.918c3.832-10.482,15.435-15.874,25.918-12.043
			C104.583,313.952,109.975,325.556,106.143,336.038z M92.866,303.06c-8.559,7.162-21.304,6.03-28.466-2.53
			c-7.162-8.56-6.03-21.304,2.53-28.467c8.559-7.162,21.304-6.03,28.467,2.53C102.558,283.152,101.425,295.897,92.866,303.06z"/>
		<g>
			<polygon style="fill:#FFFFFF;stroke:#263238;stroke-miterlimit:10;" points="199.046,268.456 201.905,273.852 207.92,272.799 
				203.672,277.186 206.532,282.582 201.047,279.897 196.799,284.284 197.657,278.238 192.173,275.554 198.188,274.502 			"/>
			<polygon style="fill:#FFFFFF;stroke:#263238;stroke-miterlimit:10;" points="173.52,272.921 176.379,278.316 182.394,277.264 
				178.146,281.651 181.006,287.047 175.521,284.362 171.273,288.749 172.131,282.703 166.646,280.019 172.661,278.967 			"/>
			<polygon style="fill:#FFFFFF;stroke:#263238;stroke-miterlimit:10;" points="147.993,277.386 150.853,282.781 156.868,281.729 
				152.62,286.116 155.479,291.512 149.995,288.827 145.747,293.214 146.605,287.168 141.12,284.484 147.135,283.432 			"/>
			<polygon style="fill:#FFFFFF;stroke:#263238;stroke-miterlimit:10;" points="250.098,259.526 252.957,264.922 258.973,263.869 
				254.725,268.256 257.584,273.652 252.099,270.967 247.851,275.354 248.71,269.308 243.225,266.624 249.24,265.572 			"/>
			<polygon style="fill:#FFFFFF;stroke:#263238;stroke-miterlimit:10;" points="224.572,263.991 227.431,269.387 233.446,268.334 
				229.199,272.721 232.058,278.117 226.573,275.432 222.325,279.819 223.183,273.773 217.699,271.089 223.714,270.037 			"/>
		</g>
		<g>
			
				<rect x="396.123" y="297.889" transform="matrix(-0.1723 -0.985 0.985 -0.1723 142.7939 777.1934)" style="fill:#263238;" width="3.613" height="61.428"/>
			
				<rect x="391.409" y="270.94" transform="matrix(-0.1723 -0.985 0.985 -0.1723 163.8263 740.9641)" style="fill:#263238;" width="3.613" height="61.428"/>
			
				<rect x="390.431" y="265.346" transform="matrix(-0.1723 -0.985 0.985 -0.1723 168.1882 733.443)" style="fill:#263238;" width="3.613" height="61.428"/>
			
				<rect x="387.585" y="249.075" transform="matrix(-0.1723 -0.985 0.985 -0.1723 180.8795 711.5646)" style="fill:#263238;" width="3.613" height="61.428"/>
			
				<rect x="382.604" y="220.6" transform="matrix(-0.1723 -0.985 0.985 -0.1723 203.0915 673.2782)" style="fill:#263238;" width="3.613" height="61.428"/>
			
				<rect x="396.293" y="293.694" transform="matrix(-0.1723 -0.985 0.985 -0.1723 146.0773 771.5593)" style="fill:#263238;" width="1.807" height="61.427"/>
			
				<rect x="395.67" y="290.135" transform="matrix(-0.1723 -0.985 0.985 -0.1723 148.8536 766.7734)" style="fill:#263238;" width="1.807" height="61.428"/>
			
				<rect x="395.047" y="286.575" transform="matrix(-0.1723 -0.985 0.985 -0.1723 151.6298 761.9875)" style="fill:#263238;" width="1.807" height="61.428"/>
			
				<rect x="384.997" y="229.117" transform="matrix(-0.1723 -0.985 0.985 -0.1723 196.4464 684.7293)" style="fill:#263238;" width="1.807" height="61.428"/>
			
				<rect x="384.375" y="225.558" transform="matrix(-0.1723 -0.985 0.985 -0.1723 199.2267 679.9452)" style="fill:#263238;" width="1.807" height="61.428"/>
			
				<rect x="394.425" y="283.016" transform="matrix(-0.1723 -0.9851 0.9851 -0.1723 154.3861 757.1907)" style="fill:#263238;" width="1.807" height="61.428"/>
			
				<rect x="393.802" y="279.457" transform="matrix(-0.1723 -0.985 0.985 -0.1723 157.1823 752.4157)" style="fill:#263238;" width="1.807" height="61.428"/>
			
				<rect x="387.576" y="243.863" transform="matrix(-0.1723 -0.985 0.985 -0.1723 184.9489 704.5586)" style="fill:#263238;" width="1.807" height="61.427"/>
			
				<rect x="386.954" y="240.304" transform="matrix(-0.1723 -0.985 0.985 -0.1723 187.721 699.7707)" style="fill:#263238;" width="1.807" height="61.428"/>
			
				<rect x="386.331" y="236.745" transform="matrix(-0.1723 -0.985 0.985 -0.1723 190.4972 694.9848)" style="fill:#263238;" width="1.807" height="61.427"/>
			
				<rect x="390.245" y="259.117" transform="matrix(-0.1723 -0.985 0.985 -0.1723 173.0465 725.0677)" style="fill:#263238;" width="1.807" height="61.428"/>
			
				<rect x="389.533" y="255.05" transform="matrix(-0.1723 -0.985 0.985 -0.1723 176.2194 719.598)" style="fill:#263238;" width="1.807" height="61.427"/>
			
				<rect x="393.18" y="275.897" transform="matrix(-0.1723 -0.985 0.985 -0.1723 159.9628 747.632)" style="fill:#263238;" width="1.807" height="61.428"/>
			
				<rect x="381.359" y="213.482" transform="matrix(-0.1723 -0.985 0.985 -0.1723 208.644 663.7063)" style="fill:#263238;" width="3.613" height="61.428"/>
			
				<rect x="376.645" y="186.532" transform="matrix(-0.1723 -0.985 0.985 -0.1723 229.6641 627.4701)" style="fill:#263238;" width="3.613" height="61.428"/>
			
				<rect x="375.667" y="180.939" transform="matrix(-0.1723 -0.985 0.985 -0.1723 234.0248 619.9487)" style="fill:#263238;" width="3.613" height="61.427"/>
			
				<rect x="381.528" y="209.287" transform="matrix(-0.1723 -0.985 0.985 -0.1723 211.914 658.065)" style="fill:#263238;" width="1.807" height="61.428"/>
			
				<rect x="380.906" y="205.727" transform="matrix(-0.1723 -0.985 0.985 -0.1723 214.6903 653.2791)" style="fill:#263238;" width="1.807" height="61.428"/>
			
				<rect x="380.283" y="202.168" transform="matrix(-0.1723 -0.985 0.985 -0.1723 217.4665 648.4932)" style="fill:#263238;" width="1.807" height="61.428"/>
			
				<rect x="379.661" y="198.609" transform="matrix(-0.1723 -0.985 0.985 -0.1723 220.2451 643.7081)" style="fill:#263238;" width="1.807" height="61.428"/>
			
				<rect x="372.012" y="154.88" transform="matrix(-0.1723 -0.985 0.985 -0.1723 254.3569 584.9108)" style="fill:#263238;" width="1.807" height="61.428"/>
			
				<rect x="371.389" y="151.32" transform="matrix(-0.1723 -0.985 0.985 -0.1723 257.1271 580.123)" style="fill:#263238;" width="1.807" height="61.428"/>
			
				<rect x="379.038" y="195.049" transform="matrix(-0.1723 -0.985 0.985 -0.1723 223.019 638.9214)" style="fill:#263238;" width="1.807" height="61.428"/>
			
				<rect x="378.415" y="191.49" transform="matrix(-0.1723 -0.985 0.985 -0.1723 225.7992 634.1369)" style="fill:#263238;" width="1.807" height="61.427"/>
			
				<rect x="372.998" y="165.685" transform="matrix(-0.1723 -0.985 0.985 -0.1723 245.9249 599.4383)" style="fill:#263238;" width="3.613" height="61.428"/>
			
				<rect x="372.02" y="160.091" transform="matrix(-0.1723 -0.985 0.985 -0.1723 250.2857 591.9169)" style="fill:#263238;" width="3.613" height="61.428"/>
			
				<rect x="375.391" y="174.202" transform="matrix(-0.1723 -0.985 0.985 -0.1723 239.2798 610.8896)" style="fill:#263238;" width="1.807" height="61.428"/>
			
				<rect x="374.769" y="170.642" transform="matrix(-0.1723 -0.985 0.985 -0.1723 242.0599 606.105)" style="fill:#263238;" width="1.807" height="61.428"/>
		</g>
		<g>
			<g>
				<path style="fill:#263238;" d="M138.511,362.05l-1.495-8.547l2.089-0.366c0.724-0.127,1.305-0.133,1.742-0.017
					c0.437,0.116,0.775,0.358,1.013,0.726c0.239,0.368,0.412,0.862,0.52,1.481l0.544,3.113c0.111,0.633,0.118,1.168,0.02,1.605
					c-0.097,0.438-0.328,0.788-0.691,1.051c-0.364,0.263-0.901,0.457-1.611,0.581L138.511,362.05z M140.039,360.532l0.369-0.065
					c0.324-0.057,0.545-0.147,0.665-0.274c0.12-0.126,0.179-0.292,0.179-0.499c0-0.206-0.025-0.458-0.077-0.753l-0.616-3.524
					c-0.052-0.295-0.117-0.529-0.193-0.701c-0.078-0.171-0.192-0.287-0.344-0.347c-0.152-0.061-0.383-0.064-0.692-0.01l-0.359,0.063
					L140.039,360.532z"/>
				<path style="fill:#263238;" d="M144.04,361.083l0.161-8.837l1.931-0.338l3.141,8.259l-1.614,0.282l-0.635-1.824l-1.35,0.236
					l0.001,1.935L144.04,361.083z M145.647,357.768l1.024-0.179l-1.121-3.361L145.647,357.768z"/>
				<path style="fill:#263238;" d="M150.508,359.952l-1.268-7.249l-1.319,0.231l-0.227-1.298l4.369-0.764l0.227,1.297l-1.298,0.227
					l1.268,7.25L150.508,359.952z"/>
				<path style="fill:#263238;" d="M154.329,359.283l-1.495-8.547l3.724-0.651l0.211,1.203l-1.984,0.347l0.397,2.268l1.53-0.268
					l0.212,1.214l-1.53,0.268l0.469,2.68l2.005-0.351l0.207,1.182L154.329,359.283z"/>
				<path style="fill:#263238;" d="M158.241,354.108l-0.266-1.519l1.499-0.262l0.266,1.519L158.241,354.108z M158.883,357.78
					l-0.264-1.509l1.498-0.262l0.264,1.509L158.883,357.78z"/>
				<path style="fill:#263238;" d="M166.589,357.258c-0.542,0.095-1.004,0.051-1.388-0.132c-0.383-0.183-0.691-0.471-0.923-0.866
					c-0.233-0.395-0.396-0.863-0.491-1.404l-0.532-3.039c-0.097-0.556-0.119-1.067-0.066-1.533c0.052-0.466,0.221-0.855,0.508-1.166
					c0.286-0.311,0.736-0.52,1.348-0.627c0.527-0.092,0.962-0.083,1.304,0.028c0.342,0.11,0.612,0.315,0.809,0.614
					c0.197,0.299,0.337,0.684,0.42,1.155c0.004,0.022,0.009,0.044,0.017,0.068c0.008,0.024,0.013,0.046,0.017,0.068l-1.54,0.27
					c-0.063-0.359-0.145-0.62-0.246-0.784c-0.101-0.164-0.285-0.222-0.553-0.175c-0.168,0.029-0.291,0.105-0.367,0.227
					c-0.077,0.122-0.113,0.312-0.108,0.568c0.005,0.257,0.045,0.603,0.122,1.039l0.153,0.876c0.065-0.171,0.186-0.316,0.365-0.434
					c0.178-0.118,0.395-0.203,0.646-0.255c0.449-0.093,0.826-0.055,1.135,0.111c0.308,0.167,0.556,0.429,0.741,0.785
					c0.185,0.355,0.319,0.769,0.402,1.24c0.101,0.577,0.12,1.103,0.058,1.578c-0.062,0.475-0.238,0.866-0.528,1.175
					C167.599,356.953,167.166,357.157,166.589,357.258z M166.398,356.041c0.176-0.031,0.297-0.113,0.364-0.249
					c0.067-0.135,0.097-0.314,0.091-0.538c-0.007-0.223-0.037-0.49-0.091-0.799c-0.052-0.295-0.105-0.552-0.162-0.771
					c-0.056-0.219-0.141-0.383-0.255-0.494c-0.114-0.11-0.276-0.147-0.488-0.11c-0.098,0.017-0.188,0.053-0.269,0.107
					c-0.082,0.054-0.149,0.116-0.201,0.187c-0.053,0.07-0.092,0.141-0.116,0.211l0.238,1.361c0.037,0.211,0.091,0.406,0.163,0.586
					c0.071,0.18,0.166,0.317,0.285,0.412C166.075,356.04,166.222,356.072,166.398,356.041z"/>
				<path style="fill:#263238;" d="M169.409,353.481l-0.183-1.044l2.648-0.463l0.183,1.044L169.409,353.481z"/>
				<path style="fill:#263238;" d="M173.66,355.902l-0.201-1.15l1.52-3.562c0.113-0.266,0.219-0.52,0.317-0.762
					c0.099-0.242,0.173-0.485,0.221-0.73c0.048-0.244,0.049-0.496,0.003-0.756c-0.048-0.274-0.137-0.474-0.268-0.6
					c-0.131-0.126-0.295-0.172-0.491-0.137c-0.211,0.037-0.363,0.124-0.456,0.259c-0.092,0.136-0.143,0.302-0.151,0.5
					c-0.009,0.197,0.006,0.408,0.045,0.634l0.07,0.4l-1.593,0.279l-0.074-0.422c-0.089-0.507-0.088-0.97,0.001-1.392
					c0.09-0.422,0.285-0.773,0.588-1.054c0.302-0.281,0.731-0.47,1.287-0.568c0.753-0.132,1.353-0.034,1.803,0.294
					c0.449,0.328,0.735,0.847,0.859,1.557c0.06,0.345,0.064,0.672,0.009,0.983c-0.055,0.31-0.144,0.616-0.269,0.917
					c-0.125,0.302-0.261,0.613-0.407,0.936l-1.212,2.768l2.543-0.445l0.225,1.287L173.66,355.902z"/>
				<path style="fill:#263238;" d="M181.293,354.719c-0.57,0.1-1.041,0.071-1.412-0.085c-0.372-0.156-0.666-0.416-0.882-0.781
					c-0.216-0.364-0.368-0.799-0.457-1.306l-0.054-0.307l1.625-0.284c0.002,0.015,0.009,0.052,0.019,0.111
					c0.01,0.06,0.021,0.118,0.03,0.174c0.055,0.274,0.118,0.496,0.188,0.669c0.07,0.173,0.162,0.296,0.277,0.37
					c0.114,0.074,0.263,0.096,0.446,0.064c0.19-0.033,0.322-0.106,0.397-0.216c0.074-0.111,0.114-0.261,0.117-0.451
					c0.003-0.189-0.019-0.417-0.066-0.684c-0.075-0.429-0.196-0.751-0.364-0.964c-0.168-0.214-0.442-0.291-0.823-0.231
					c-0.008,0.001-0.043,0.008-0.106,0.018c-0.064,0.011-0.124,0.022-0.179,0.031l-0.21-1.203c0.042-0.007,0.086-0.015,0.131-0.023
					c0.046-0.008,0.087-0.015,0.122-0.021c0.38-0.066,0.62-0.214,0.722-0.441c0.102-0.228,0.114-0.561,0.037-0.997
					c-0.059-0.337-0.154-0.593-0.286-0.765c-0.131-0.173-0.331-0.236-0.599-0.189c-0.267,0.047-0.425,0.183-0.472,0.409
					c-0.047,0.225-0.046,0.505,0.005,0.836c0.01,0.056,0.021,0.118,0.032,0.185c0.012,0.067,0.023,0.131,0.034,0.195l-1.625,0.284
					l-0.081-0.465c-0.087-0.499-0.07-0.939,0.052-1.319c0.122-0.381,0.337-0.692,0.642-0.934c0.305-0.242,0.701-0.405,1.186-0.49
					c0.486-0.085,0.916-0.07,1.291,0.046c0.376,0.116,0.683,0.327,0.921,0.633c0.239,0.306,0.401,0.709,0.488,1.208
					c0.087,0.5,0.056,0.933-0.093,1.3c-0.15,0.367-0.368,0.623-0.654,0.767c0.223,0.033,0.43,0.117,0.62,0.251
					c0.19,0.133,0.355,0.327,0.493,0.583c0.139,0.254,0.243,0.582,0.314,0.983c0.09,0.514,0.096,0.982,0.017,1.405
					c-0.078,0.423-0.266,0.778-0.565,1.062C182.276,354.431,181.849,354.622,181.293,354.719z"/>
				<path style="fill:#263238;" d="M184.012,350.926l-0.183-1.044l2.648-0.463l0.183,1.044L184.012,350.926z"/>
				<path style="fill:#263238;" d="M188.264,353.348l-0.201-1.15l1.52-3.562c0.113-0.266,0.219-0.52,0.317-0.762
					c0.099-0.242,0.173-0.485,0.221-0.73c0.048-0.244,0.049-0.496,0.003-0.756c-0.048-0.274-0.137-0.474-0.268-0.6
					c-0.131-0.126-0.295-0.172-0.491-0.137c-0.211,0.037-0.363,0.124-0.456,0.259c-0.092,0.136-0.143,0.302-0.151,0.5
					c-0.009,0.197,0.006,0.408,0.045,0.634l0.07,0.4l-1.593,0.279l-0.074-0.422c-0.089-0.507-0.088-0.97,0.001-1.392
					c0.09-0.422,0.285-0.773,0.588-1.054c0.302-0.281,0.731-0.47,1.287-0.568c0.753-0.132,1.353-0.034,1.803,0.294
					c0.449,0.328,0.735,0.847,0.859,1.557c0.06,0.345,0.064,0.672,0.009,0.982c-0.055,0.311-0.144,0.617-0.269,0.917
					c-0.125,0.302-0.261,0.613-0.407,0.936l-1.212,2.768l2.543-0.445l0.225,1.287L188.264,353.348z"/>
				<path style="fill:#263238;" d="M195.898,352.164c-0.57,0.1-1.041,0.071-1.412-0.085c-0.372-0.156-0.666-0.416-0.882-0.781
					c-0.216-0.364-0.368-0.799-0.457-1.306l-0.054-0.306l1.625-0.284c0.003,0.015,0.009,0.052,0.019,0.111
					c0.011,0.06,0.021,0.118,0.03,0.174c0.055,0.274,0.118,0.496,0.188,0.669c0.07,0.173,0.162,0.296,0.277,0.37
					c0.114,0.074,0.263,0.096,0.446,0.064c0.19-0.033,0.322-0.106,0.398-0.216c0.074-0.111,0.114-0.262,0.117-0.451
					c0.003-0.189-0.019-0.417-0.066-0.684c-0.075-0.429-0.196-0.751-0.364-0.964c-0.168-0.214-0.442-0.291-0.823-0.231
					c-0.008,0.001-0.043,0.008-0.106,0.018c-0.064,0.011-0.124,0.022-0.179,0.031l-0.21-1.203c0.042-0.007,0.086-0.015,0.131-0.023
					c0.046-0.008,0.087-0.015,0.122-0.021c0.38-0.066,0.62-0.214,0.722-0.441c0.102-0.228,0.113-0.561,0.037-0.997
					c-0.059-0.337-0.154-0.593-0.286-0.765c-0.131-0.173-0.331-0.236-0.599-0.189c-0.267,0.047-0.425,0.183-0.472,0.409
					c-0.047,0.225-0.046,0.505,0.005,0.836c0.01,0.056,0.021,0.118,0.032,0.185c0.012,0.067,0.023,0.131,0.034,0.195l-1.625,0.284
					l-0.081-0.465c-0.087-0.499-0.07-0.939,0.052-1.319c0.122-0.381,0.337-0.692,0.642-0.934c0.305-0.242,0.701-0.405,1.186-0.49
					c0.486-0.085,0.916-0.07,1.291,0.046c0.376,0.116,0.683,0.327,0.921,0.633c0.238,0.306,0.401,0.709,0.488,1.208
					c0.087,0.5,0.056,0.933-0.093,1.3c-0.15,0.367-0.368,0.623-0.654,0.767c0.224,0.034,0.43,0.117,0.62,0.251
					c0.19,0.133,0.355,0.327,0.493,0.583c0.139,0.254,0.243,0.582,0.314,0.983c0.09,0.514,0.096,0.983,0.017,1.405
					c-0.078,0.424-0.266,0.777-0.565,1.062C196.88,351.876,196.453,352.067,195.898,352.164z"/>
			</g>
			<g>
				<path style="fill:#263238;" d="M211.815,349.228l-1.495-8.547l2.215-0.388c0.577-0.101,1.082-0.122,1.517-0.064
					c0.434,0.059,0.79,0.233,1.07,0.525c0.279,0.292,0.471,0.729,0.573,1.313c0.062,0.352,0.086,0.669,0.073,0.95
					c-0.013,0.281-0.077,0.536-0.193,0.762c-0.116,0.227-0.301,0.424-0.554,0.592l1.911,3.962l-1.783,0.312l-1.659-3.701
					l-0.612,0.107l0.677,3.873L211.815,349.228z M212.698,344.017l0.507-0.089c0.281-0.049,0.495-0.133,0.641-0.254
					c0.146-0.119,0.235-0.278,0.27-0.476c0.034-0.198,0.028-0.434-0.02-0.709c-0.069-0.394-0.194-0.682-0.374-0.865
					c-0.181-0.182-0.467-0.239-0.862-0.17l-0.591,0.103L212.698,344.017z"/>
				<path style="fill:#263238;" d="M220.309,347.862c-0.627,0.11-1.142,0.084-1.547-0.077c-0.405-0.161-0.723-0.437-0.955-0.828
					c-0.232-0.391-0.399-0.878-0.501-1.462l-0.557-3.187c-0.102-0.584-0.111-1.098-0.024-1.54c0.085-0.443,0.292-0.805,0.62-1.087
					c0.328-0.282,0.804-0.478,1.431-0.587c0.633-0.111,1.154-0.088,1.562,0.069c0.408,0.157,0.727,0.428,0.957,0.811
					c0.231,0.383,0.397,0.868,0.499,1.452l0.557,3.187c0.102,0.584,0.111,1.098,0.025,1.545c-0.085,0.446-0.292,0.814-0.622,1.104
					S220.942,347.751,220.309,347.862z M220.089,346.606c0.225-0.039,0.381-0.119,0.469-0.24c0.088-0.121,0.134-0.27,0.139-0.449
					c0.005-0.178-0.01-0.366-0.045-0.563l-0.707-4.041c-0.034-0.197-0.084-0.377-0.148-0.54c-0.065-0.163-0.159-0.286-0.282-0.369
					c-0.124-0.084-0.297-0.105-0.522-0.066c-0.211,0.037-0.36,0.115-0.448,0.236c-0.088,0.121-0.135,0.268-0.14,0.443
					c-0.006,0.175,0.008,0.361,0.043,0.558l0.707,4.041c0.034,0.197,0.083,0.379,0.145,0.546c0.062,0.167,0.155,0.292,0.277,0.376
					C219.7,346.622,219.871,346.644,220.089,346.606z"/>
				<path style="fill:#263238;" d="M224.752,346.965l-2.604-8.353l1.478-0.259l1.504,5.12l-0.163-5.344l1.171-0.205l1.691,5.065
					l-0.321-5.316l1.456-0.255l0.398,8.739l-1.477,0.258l-1.781-5.268l0.156,5.552L224.752,346.965z"/>
				<path style="fill:#263238;" d="M230.669,341.439l-0.266-1.519l1.499-0.262l0.266,1.519L230.669,341.439z M231.311,345.111
					l-0.264-1.509l1.499-0.262l0.264,1.509L231.311,345.111z"/>
				<path style="fill:#263238;" d="M239.018,344.47l-0.349-1.994l-2.596,0.454l-0.223-1.277l1.304-5.665l1.899-0.332l0.928,5.308
					l0.823-0.144l0.218,1.245l-0.823,0.144l0.349,1.994L239.018,344.47z M237.143,341.459l1.309-0.229l-0.635-3.63L237.143,341.459z
					"/>
			</g>
			<g>
				<path style="fill:#263238;" d="M255.118,341.773c-0.527,0.092-0.984,0.072-1.37-0.06c-0.386-0.132-0.702-0.377-0.95-0.736
					c-0.248-0.359-0.439-0.838-0.572-1.438l1.454-0.515c0.075,0.349,0.163,0.636,0.265,0.862c0.1,0.225,0.223,0.385,0.366,0.479
					c0.143,0.094,0.307,0.126,0.49,0.094c0.225-0.039,0.365-0.137,0.422-0.291c0.056-0.155,0.069-0.324,0.037-0.507
					c-0.063-0.359-0.202-0.644-0.416-0.857c-0.215-0.212-0.484-0.417-0.809-0.614l-1.021-0.615
					c-0.364-0.212-0.675-0.469-0.934-0.772c-0.26-0.302-0.433-0.699-0.519-1.192c-0.123-0.703-0.011-1.279,0.334-1.728
					c0.346-0.448,0.878-0.735,1.595-0.86c0.429-0.075,0.794-0.066,1.092,0.027c0.299,0.093,0.544,0.244,0.738,0.452
					c0.192,0.21,0.343,0.448,0.451,0.715c0.109,0.268,0.194,0.537,0.256,0.809l-1.449,0.482c-0.06-0.258-0.123-0.483-0.189-0.674
					c-0.066-0.191-0.157-0.335-0.271-0.431c-0.115-0.096-0.267-0.127-0.457-0.094c-0.204,0.036-0.342,0.138-0.414,0.306
					c-0.072,0.168-0.092,0.344-0.06,0.527c0.053,0.302,0.164,0.539,0.335,0.708c0.171,0.169,0.395,0.339,0.671,0.507l0.998,0.609
					c0.413,0.247,0.782,0.546,1.109,0.899s0.541,0.82,0.643,1.404c0.07,0.401,0.042,0.78-0.085,1.135
					c-0.126,0.356-0.336,0.654-0.631,0.894C255.931,341.537,255.561,341.695,255.118,341.773z"/>
				<path style="fill:#263238;" d="M258.074,341.136l-1.495-8.547l3.724-0.651l0.211,1.203l-1.984,0.347l0.397,2.268l1.53-0.268
					l0.212,1.214l-1.53,0.268l0.469,2.68l2.005-0.351l0.207,1.182L258.074,341.136z"/>
				<path style="fill:#263238;" d="M262.274,340.402l0.161-8.837l1.931-0.338l3.141,8.259l-1.614,0.282l-0.635-1.824l-1.35,0.236
					l0.001,1.935L262.274,340.402z M263.88,337.087l1.024-0.179l-1.121-3.361L263.88,337.087z"/>
				<path style="fill:#263238;" d="M268.742,339.27l-1.268-7.249l-1.319,0.231l-0.227-1.298l4.369-0.764l0.227,1.297l-1.298,0.227
					l1.268,7.249L268.742,339.27z"/>
				<path style="fill:#263238;" d="M271.852,334.235l-0.266-1.519l1.499-0.262l0.266,1.519L271.852,334.235z M272.495,337.907
					l-0.264-1.509l1.499-0.262l0.264,1.509L272.495,337.907z"/>
				<path style="fill:#263238;" d="M277.743,337.696l-0.201-1.15l1.52-3.562c0.113-0.266,0.219-0.52,0.317-0.762
					c0.099-0.242,0.173-0.485,0.221-0.73c0.048-0.244,0.049-0.496,0.003-0.756c-0.048-0.274-0.137-0.474-0.268-0.6
					c-0.131-0.126-0.295-0.172-0.491-0.137c-0.211,0.037-0.363,0.124-0.456,0.259s-0.143,0.302-0.151,0.5
					c-0.009,0.197,0.006,0.408,0.045,0.634l0.07,0.4l-1.593,0.279l-0.074-0.422c-0.089-0.507-0.088-0.97,0.001-1.392
					c0.09-0.422,0.285-0.773,0.588-1.054c0.302-0.281,0.731-0.47,1.287-0.568c0.753-0.132,1.354-0.034,1.803,0.294
					c0.449,0.328,0.735,0.847,0.859,1.557c0.06,0.345,0.064,0.672,0.009,0.983c-0.055,0.31-0.144,0.616-0.269,0.917
					c-0.125,0.302-0.261,0.613-0.407,0.936l-1.212,2.768l2.543-0.445l0.225,1.287L277.743,337.696z"/>
				<path style="fill:#263238;" d="M285.404,336.356l-0.349-1.994l-2.596,0.454l-0.223-1.277l1.304-5.666l1.9-0.332l0.928,5.308
					l0.823-0.144l0.218,1.245l-0.823,0.144l0.349,1.994L285.404,336.356z M283.528,333.346l1.309-0.229l-0.635-3.63L283.528,333.346
					z"/>
			</g>
		</g>
		<g>
			<line style="fill:none;stroke:#263238;stroke-miterlimit:10;" x1="76.33" y1="381.234" x2="312.365" y2="339.947"/>
			<line style="fill:none;stroke:#263238;stroke-miterlimit:10;" x1="51.951" y1="241.858" x2="287.986" y2="200.571"/>
		</g>
		<g>
			
				<rect x="233.023" y="261.009" transform="matrix(-0.1723 -0.985 0.985 -0.1723 91.0944 615.7388)" style="fill:#263238;" width="142.433" height="17.176"/>
			<g>
				<g>
					<path style="fill:#92E3A9;" d="M313.404,293.992l-9.84-0.18l-0.376-2.15l9.197-3.497l0.314,1.798l-2.032,0.707l0.263,1.504
						l2.155-0.002L313.404,293.992z M309.713,292.203l-0.199-1.14l-3.742,1.248L309.713,292.203z"/>
					<path style="fill:#92E3A9;" d="M312.228,287.271l-9.517,1.665l-0.407-2.326c-0.141-0.807-0.147-1.454-0.018-1.94
						c0.129-0.487,0.398-0.863,0.808-1.128c0.41-0.265,0.959-0.458,1.648-0.579l3.466-0.606c0.705-0.123,1.301-0.13,1.788-0.022
						s0.877,0.365,1.17,0.77c0.293,0.405,0.508,1.003,0.647,1.794L312.228,287.271z M310.538,285.569l-0.072-0.411
						c-0.063-0.36-0.165-0.607-0.305-0.74c-0.14-0.133-0.325-0.199-0.555-0.199c-0.231,0-0.51,0.028-0.839,0.086l-3.924,0.686
						c-0.329,0.057-0.589,0.13-0.78,0.215c-0.191,0.086-0.32,0.213-0.387,0.383c-0.067,0.169-0.07,0.426-0.01,0.771l0.07,0.399
						L310.538,285.569z"/>
					<path style="fill:#92E3A9;" d="M311.057,280.574l-9.546,1.5l-0.36-2.056l5.799-2.225l-6.224-0.207l-0.347-1.986l9.489-1.829
						l0.247,1.41l-6.424,1.281l6.662,0.082l0.212,1.21l-6.275,2.405l6.52-1.007L311.057,280.574z"/>
					<path style="fill:#92E3A9;" d="M309.637,272.455l-9.517,1.665l-0.337-1.927l9.517-1.665L309.637,272.455z"/>
					<path style="fill:#92E3A9;" d="M308.889,268.178l-8.072,1.412l0.257,1.469l-1.446,0.253l-0.851-4.864l1.446-0.253l0.253,1.445
						l8.072-1.412L308.889,268.178z"/>
					<path style="fill:#92E3A9;" d="M307.296,258.31c0.122,0.697,0.093,1.272-0.086,1.722c-0.18,0.451-0.487,0.806-0.922,1.063
						c-0.435,0.258-0.978,0.443-1.628,0.557l-3.548,0.621c-0.65,0.114-1.221,0.123-1.715,0.028c-0.493-0.095-0.896-0.326-1.21-0.69
						c-0.314-0.365-0.532-0.896-0.654-1.593c-0.123-0.705-0.098-1.285,0.077-1.739c0.175-0.455,0.476-0.81,0.904-1.066
						c0.427-0.256,0.966-0.441,1.616-0.555l3.548-0.621c0.65-0.114,1.224-0.123,1.72-0.029c0.497,0.095,0.906,0.326,1.229,0.693
						C306.949,257.069,307.172,257.605,307.296,258.31z M305.898,258.555c-0.044-0.251-0.133-0.425-0.268-0.522
						c-0.134-0.098-0.3-0.149-0.499-0.155c-0.198-0.005-0.407,0.011-0.626,0.049l-4.5,0.787c-0.219,0.038-0.419,0.094-0.601,0.165
						c-0.181,0.072-0.318,0.177-0.411,0.314c-0.093,0.137-0.117,0.332-0.073,0.582c0.041,0.235,0.129,0.401,0.263,0.499
						c0.134,0.098,0.299,0.15,0.493,0.156c0.195,0.006,0.402-0.01,0.621-0.048l4.5-0.787c0.219-0.038,0.422-0.092,0.607-0.161
						c0.186-0.069,0.325-0.172,0.418-0.309C305.915,258.987,305.94,258.797,305.898,258.555z"/>
					<path style="fill:#92E3A9;" d="M306.447,254.221l-9.517,1.665l-0.236-1.351l4.589-2.982l-4.959,0.867l-0.279-1.598l9.517-1.665
						l0.226,1.292l-4.893,3.036l5.263-0.921L306.447,254.221z"/>
					<path style="fill:#92E3A9;" d="M305.309,247.712l-9.517,1.665l-0.725-4.147l1.34-0.234l0.386,2.208l2.526-0.442l-0.298-1.703
						l1.351-0.236l0.298,1.703l2.984-0.522l-0.39-2.232l1.316-0.23L305.309,247.712z"/>
				</g>
			</g>
		</g>
		<path style="opacity:0.39;" d="M32.14,225.606l267.768-46.454c0.957,5.32,5.981,8.906,11.313,8.083l0.186-0.032
			c5.402-0.937,9.017-6.057,8.115-11.453l136.673-23.711l30.349,174.936l-136.673,23.711c-0.002-0.011,0.007-0.024,0.005-0.035
			c-0.941-5.424-6.097-9.056-11.521-8.115l-0.186,0.032c-5.308,1.022-8.847,6.129-7.917,11.487l0.006,0.033L62.489,400.542
			L32.14,225.606z"/>
	</g>
</g>
<g id="Ticket_1">
	<g>
		<path style="fill:#92E3A9;stroke:#263238;stroke-linecap:round;stroke-linejoin:round;stroke-miterlimit:10;" d="M16.356,211.432
			l253.305-98.459c1.989,5.026,7.623,7.549,12.687,5.688l0.176-0.069c5.11-1.986,7.643-7.719,5.691-12.831l129.29-50.255
			l64.325,165.487l-129.29,50.255c-0.004-0.01,0.002-0.025-0.002-0.035c-1.994-5.131-7.767-7.672-12.898-5.678l-0.176,0.069
			c-5.001,2.051-7.461,7.756-5.491,12.825l0.012,0.031L80.681,376.92L16.356,211.432z"/>
		<path style="fill:#FFFFFF;stroke:#263238;stroke-miterlimit:10;" d="M282.525,118.593l-0.176,0.069
			c-0.046,0.017-0.092,0.027-0.137,0.043l57.324,146.873l0.106-0.041c5.131-1.994,10.903,0.547,12.898,5.678
			c0.004,0.01-0.002,0.025,0.002,0.035l129.29-50.255L417.506,55.506l-129.29,50.255
			C290.167,110.873,287.635,116.606,282.525,118.593z"/>
		<path style="fill:#263238;" d="M22.052,226.133l4.422,11.375c10.374-3.993,22.035,1.141,26.082,11.508
			c4.053,10.384-1.07,22.085-11.441,26.156l3.376,8.685c4.067-1.573,8.834-1.011,12.483,1.91c5.457,4.368,6.339,12.333,1.97,17.79
			c-1.443,1.802-3.282,3.094-5.29,3.874l3.375,8.683c0.007-0.003,0.013-0.006,0.02-0.009c10.397-4.058,22.115,1.081,26.173,11.478
			c4.058,10.397-1.081,22.115-11.478,26.173c-0.024,0.01-0.049,0.015-0.074,0.025l4.421,11.374
			c11.848-4.594,22.686-12.26,31.199-22.894c25.744-32.157,20.545-79.096-11.613-104.84
			C74.157,220.195,46.028,216.843,22.052,226.133z M110.726,305.06c-1.684,11.033-11.993,18.612-23.026,16.927
			s-18.612-11.993-16.927-23.026c1.684-11.033,11.994-18.611,23.026-16.927C104.831,283.718,112.41,294.028,110.726,305.06z
			 M91.192,275.357c-6.975,8.713-19.692,10.121-28.405,3.146c-8.713-6.975-10.121-19.692-3.146-28.405s19.692-10.121,28.405-3.146
			C96.758,253.926,98.167,266.644,91.192,275.357z"/>
		<g>
			<line style="fill:none;stroke:#263238;stroke-miterlimit:10;" x1="90.433" y1="355.257" x2="313.652" y2="268.135"/>
			<line style="fill:none;stroke:#263238;stroke-miterlimit:10;" x1="38.989" y1="223.449" x2="262.207" y2="136.327"/>
		</g>
		<g>
			
				<rect x="220.566" y="192.191" transform="matrix(-0.3636 -0.9316 0.9316 -0.3636 210.8331 545.5928)" style="fill:#263238;" width="142.433" height="17.176"/>
		</g>
		<g>
			<path style="fill:#263238;" d="M443.935,215.835c0.288,0.739,0.358,1.385,0.208,1.94c-0.15,0.555-0.466,1.033-0.948,1.433
				c-0.482,0.402-1.077,0.74-1.785,1.016l-5.416,2.114c-0.718,0.28-1.388,0.433-2.012,0.458c-0.623,0.024-1.173-0.122-1.651-0.437
				c-0.478-0.316-0.857-0.833-1.137-1.551c-0.288-0.739-0.363-1.383-0.223-1.934c0.14-0.551,0.447-1.028,0.922-1.432
				c0.475-0.404,1.072-0.746,1.79-1.026l5.416-2.114c0.718-0.28,1.391-0.437,2.016-0.467c0.626-0.032,1.179,0.106,1.66,0.415
				C443.257,214.557,443.643,215.086,443.935,215.835z M443.043,216.183c-0.188-0.482-0.454-0.807-0.797-0.975
				c-0.344-0.167-0.739-0.226-1.186-0.175c-0.447,0.05-0.922,0.173-1.425,0.37l-5.585,2.18c-0.503,0.196-0.936,0.427-1.299,0.693
				c-0.364,0.266-0.613,0.574-0.749,0.922c-0.136,0.348-0.108,0.768,0.084,1.261c0.184,0.472,0.446,0.792,0.784,0.962
				c0.338,0.169,0.731,0.229,1.178,0.178c0.447-0.05,0.922-0.173,1.425-0.37l5.585-2.18c0.503-0.196,0.936-0.427,1.299-0.693
				c0.364-0.266,0.614-0.579,0.751-0.94C443.245,217.056,443.223,216.645,443.043,216.183z"/>
			<path style="fill:#263238;" d="M440.016,206.247l-10.956,4.276c0.116,0.026,0.257,0.113,0.421,0.261
				c0.164,0.149,0.326,0.319,0.483,0.512c0.158,0.193,0.301,0.368,0.426,0.525c0.127,0.158,0.205,0.26,0.235,0.307l-0.908,0.354
				c-0.096-0.128-0.222-0.273-0.375-0.439c-0.153-0.164-0.329-0.32-0.528-0.468c-0.199-0.146-0.412-0.282-0.638-0.406
				c-0.226-0.125-0.465-0.221-0.715-0.288l-0.354-0.908l12.463-4.864L440.016,206.247z"/>
			<path style="fill:#263238;" d="M437.326,199.354l-0.815,0.318l-6.464-1.343c-0.475-0.098-0.933-0.185-1.371-0.262
				c-0.437-0.078-0.879-0.109-1.322-0.096c-0.444,0.013-0.912,0.117-1.404,0.309c-0.667,0.26-1.136,0.601-1.41,1.02
				c-0.273,0.42-0.3,0.912-0.08,1.477c0.2,0.513,0.467,0.861,0.797,1.045c0.333,0.184,0.716,0.252,1.154,0.206
				c0.436-0.047,0.901-0.165,1.394-0.357l0.277-0.108l0.438,1.123l-0.307,0.12c-0.77,0.301-1.453,0.449-2.052,0.446
				c-0.598-0.003-1.116-0.171-1.552-0.503c-0.437-0.332-0.794-0.851-1.07-1.559c-0.368-0.944-0.365-1.76,0.01-2.451
				c0.376-0.69,1.061-1.229,2.055-1.617c0.503-0.196,0.992-0.305,1.469-0.325c0.477-0.021,0.951,0.006,1.424,0.082
				c0.473,0.076,0.952,0.16,1.438,0.255l5.927,1.285l-1.694-4.339l0.954-0.372L437.326,199.354z"/>
			<path style="fill:#263238;" d="M432.231,185.846c0.252,0.646,0.335,1.223,0.249,1.729c-0.086,0.507-0.32,0.943-0.703,1.312
				c-0.382,0.368-0.882,0.672-1.497,0.912l-0.307,0.12l-0.42-1.077c0.03-0.012,0.074-0.029,0.13-0.051
				c0.057-0.022,0.1-0.039,0.13-0.051c0.437-0.182,0.796-0.391,1.077-0.624c0.281-0.235,0.461-0.509,0.539-0.823
				c0.079-0.314,0.038-0.677-0.122-1.087c-0.152-0.391-0.367-0.688-0.641-0.893c-0.276-0.206-0.636-0.302-1.079-0.289
				c-0.444,0.013-0.978,0.143-1.605,0.387c-0.769,0.3-1.343,0.684-1.723,1.152c-0.38,0.466-0.444,1.048-0.198,1.743
				c0.008,0.021,0.028,0.072,0.06,0.154c0.032,0.083,0.052,0.133,0.06,0.154l-1.078,0.42c-0.008-0.02-0.028-0.071-0.06-0.154
				c-0.032-0.082-0.052-0.133-0.06-0.154c-0.26-0.667-0.632-1.071-1.12-1.211c-0.486-0.141-1.145-0.05-1.976,0.275
				c-0.646,0.252-1.128,0.579-1.443,0.98c-0.316,0.402-0.349,0.925-0.096,1.572c0.244,0.625,0.598,1.01,1.063,1.154
				c0.464,0.144,1.069,0.082,1.816-0.185c0.02-0.008,0.054-0.021,0.1-0.039c0.046-0.018,0.084-0.033,0.115-0.045l0.42,1.076
				l-0.292,0.114c-0.616,0.24-1.183,0.353-1.703,0.337c-0.52-0.016-0.989-0.191-1.402-0.525c-0.414-0.335-0.754-0.841-1.018-1.518
				c-0.256-0.657-0.333-1.247-0.23-1.772c0.102-0.525,0.348-0.978,0.736-1.36c0.388-0.382,0.885-0.692,1.49-0.928
				c0.872-0.34,1.611-0.439,2.216-0.297c0.606,0.143,1.071,0.451,1.399,0.925c-0.038-0.34,0.014-0.69,0.157-1.053
				c0.142-0.363,0.398-0.714,0.767-1.054c0.37-0.339,0.883-0.637,1.54-0.894c0.697-0.272,1.354-0.415,1.969-0.431
				c0.614-0.015,1.156,0.138,1.623,0.458C431.583,184.625,431.954,185.138,432.231,185.846z"/>
			<path style="fill:#263238;" d="M428.045,175.121c0.268,0.687,0.329,1.302,0.179,1.845c-0.148,0.543-0.477,1.026-0.986,1.449
				c-0.509,0.424-1.168,0.793-1.978,1.109l-4.97,1.94c-0.77,0.301-1.48,0.471-2.132,0.513c-0.652,0.042-1.221-0.084-1.709-0.379
				c-0.487-0.294-0.867-0.79-1.139-1.488c-0.244-0.626-0.338-1.186-0.284-1.681c0.055-0.494,0.255-0.93,0.599-1.306
				c0.344-0.376,0.834-0.689,1.47-0.937c0.021-0.008,0.064-0.028,0.127-0.059c0.066-0.032,0.108-0.051,0.129-0.059l0.439,1.123
				c-0.8,0.312-1.321,0.66-1.561,1.043c-0.241,0.384-0.242,0.878-0.006,1.483c0.132,0.338,0.335,0.611,0.611,0.816
				c0.275,0.206,0.636,0.307,1.084,0.304c0.449-0.004,1.006-0.135,1.672-0.396l2.369-0.925c-0.256-0.113-0.531-0.316-0.823-0.61
				c-0.292-0.294-0.524-0.661-0.696-1.102c-0.268-0.688-0.35-1.276-0.246-1.766c0.105-0.49,0.396-0.923,0.876-1.3
				c0.479-0.376,1.155-0.735,2.026-1.075c0.76-0.297,1.465-0.459,2.115-0.489c0.651-0.029,1.216,0.111,1.697,0.42
				C427.391,173.905,427.769,174.414,428.045,175.121z M427.106,175.488c-0.16-0.41-0.38-0.711-0.662-0.903
				c-0.281-0.192-0.642-0.278-1.085-0.259c-0.441,0.019-0.975,0.15-1.602,0.394c-0.677,0.264-1.225,0.523-1.647,0.776
				c-0.421,0.253-0.695,0.549-0.823,0.888c-0.128,0.339-0.086,0.781,0.126,1.325c0.096,0.246,0.227,0.467,0.392,0.663
				c0.165,0.196,0.337,0.365,0.517,0.507c0.179,0.143,0.341,0.245,0.484,0.308l2.154-0.841c0.667-0.26,1.186-0.534,1.559-0.821
				c0.373-0.287,0.602-0.599,0.69-0.934C427.297,176.255,427.262,175.888,427.106,175.488z"/>
			<path style="fill:#263238;" d="M423.865,164.412c0.28,0.718,0.36,1.346,0.238,1.884c-0.121,0.538-0.408,1.007-0.86,1.408
				c-0.452,0.401-1.027,0.738-1.724,1.01c-0.544,0.212-1.018,0.336-1.425,0.37s-0.762,0.011-1.066-0.072
				c-0.304-0.082-0.57-0.203-0.798-0.362c-0.228-0.16-0.432-0.322-0.616-0.487c-0.009,0.583-0.192,1.121-0.548,1.615
				c-0.357,0.494-0.931,0.895-1.72,1.203c-0.606,0.237-1.18,0.354-1.724,0.353c-0.544,0-1.031-0.156-1.459-0.467
				c-0.429-0.311-0.776-0.805-1.04-1.482c-0.264-0.677-0.339-1.271-0.226-1.783c0.114-0.511,0.371-0.952,0.771-1.32
				c0.399-0.369,0.908-0.673,1.523-0.913c0.79-0.308,1.474-0.401,2.054-0.279c0.581,0.123,1.076,0.393,1.487,0.812
				c0.023-0.245,0.064-0.501,0.126-0.767c0.062-0.266,0.177-0.533,0.344-0.799c0.168-0.266,0.412-0.527,0.732-0.782
				c0.32-0.255,0.751-0.488,1.296-0.701c0.697-0.272,1.348-0.414,1.953-0.425c0.604-0.011,1.133,0.14,1.586,0.453
				C423.224,163.193,423.589,163.704,423.865,164.412z M416.664,167.223c-0.189-0.423-0.438-0.713-0.747-0.87
				c-0.31-0.157-0.664-0.216-1.063-0.179c-0.399,0.038-0.824,0.144-1.276,0.321c-0.717,0.28-1.211,0.627-1.482,1.039
				c-0.27,0.413-0.292,0.912-0.064,1.497c0.232,0.595,0.59,0.955,1.07,1.081c0.48,0.125,1.08,0.048,1.797-0.232
				c0.452-0.176,0.837-0.386,1.156-0.628c0.319-0.243,0.537-0.532,0.655-0.868C416.826,168.049,416.811,167.661,416.664,167.223z
				 M422.973,164.76c-0.16-0.41-0.387-0.712-0.681-0.905c-0.294-0.192-0.66-0.281-1.096-0.264c-0.437,0.017-0.947,0.139-1.532,0.367
				c-0.513,0.2-0.939,0.435-1.277,0.703c-0.338,0.268-0.575,0.579-0.709,0.932c-0.134,0.354-0.128,0.762,0.017,1.226
				c0.208,0.439,0.482,0.749,0.824,0.928c0.342,0.18,0.729,0.254,1.159,0.221c0.43-0.032,0.903-0.148,1.416-0.348
				c0.585-0.228,1.042-0.487,1.373-0.775c0.33-0.289,0.538-0.606,0.622-0.952C423.171,165.549,423.133,165.171,422.973,164.76z"/>
			<path style="fill:#263238;" d="M419.667,153.657c0.28,0.718,0.36,1.346,0.238,1.884c-0.121,0.538-0.408,1.007-0.86,1.408
				c-0.452,0.401-1.027,0.738-1.724,1.01c-0.544,0.212-1.018,0.336-1.425,0.37c-0.406,0.034-0.762,0.011-1.066-0.072
				c-0.304-0.082-0.57-0.203-0.798-0.362c-0.228-0.16-0.432-0.322-0.616-0.487c-0.009,0.583-0.192,1.121-0.548,1.615
				c-0.357,0.494-0.931,0.895-1.72,1.203c-0.606,0.236-1.18,0.354-1.724,0.353c-0.544,0-1.031-0.156-1.459-0.468
				c-0.429-0.311-0.776-0.805-1.04-1.482c-0.264-0.677-0.339-1.271-0.226-1.783c0.114-0.511,0.371-0.952,0.771-1.32
				c0.399-0.369,0.908-0.673,1.523-0.913c0.79-0.308,1.474-0.401,2.054-0.279c0.581,0.123,1.076,0.393,1.487,0.812
				c0.023-0.245,0.065-0.501,0.126-0.767c0.062-0.266,0.177-0.533,0.344-0.799c0.168-0.266,0.412-0.527,0.732-0.782
				c0.32-0.255,0.751-0.488,1.296-0.701c0.697-0.272,1.348-0.414,1.952-0.425c0.604-0.011,1.133,0.14,1.586,0.453
				C419.026,152.438,419.391,152.949,419.667,153.657z M412.466,156.468c-0.189-0.423-0.438-0.713-0.747-0.87
				c-0.31-0.157-0.664-0.216-1.063-0.179c-0.399,0.038-0.824,0.144-1.276,0.321c-0.717,0.28-1.212,0.627-1.482,1.039
				s-0.292,0.912-0.064,1.497c0.232,0.595,0.59,0.955,1.07,1.081c0.48,0.126,1.08,0.048,1.797-0.232
				c0.452-0.176,0.837-0.386,1.156-0.628c0.319-0.243,0.537-0.532,0.655-0.868C412.629,157.294,412.614,156.906,412.466,156.468z
				 M418.775,154.005c-0.16-0.41-0.387-0.712-0.681-0.905c-0.294-0.192-0.66-0.281-1.096-0.264
				c-0.437,0.017-0.947,0.139-1.532,0.367c-0.513,0.2-0.939,0.435-1.277,0.703c-0.338,0.268-0.575,0.579-0.709,0.932
				c-0.134,0.354-0.128,0.762,0.017,1.226c0.207,0.439,0.482,0.749,0.824,0.928c0.342,0.18,0.729,0.254,1.159,0.221
				c0.43-0.032,0.903-0.148,1.416-0.349c0.585-0.228,1.042-0.487,1.373-0.775c0.33-0.289,0.538-0.606,0.622-0.952
				C418.973,154.794,418.935,154.416,418.775,154.005z"/>
			<path style="fill:#263238;" d="M416.216,145.269l-12.505,2.079l1.471,3.77l-0.908,0.354l-1.922-4.923l0.553-0.216l12.883-2.156
				L416.216,145.269z"/>
			<path style="fill:#263238;" d="M412.028,134.084c0.252,0.646,0.335,1.223,0.249,1.729c-0.086,0.506-0.32,0.943-0.703,1.311
				c-0.382,0.368-0.881,0.672-1.496,0.912l-0.308,0.12l-0.42-1.077c0.03-0.012,0.074-0.029,0.13-0.051
				c0.057-0.022,0.1-0.039,0.13-0.051c0.437-0.182,0.797-0.391,1.077-0.624c0.282-0.234,0.461-0.508,0.539-0.822
				c0.079-0.314,0.038-0.676-0.122-1.087c-0.152-0.39-0.366-0.688-0.641-0.893c-0.276-0.205-0.635-0.302-1.079-0.288
				c-0.444,0.013-0.979,0.142-1.605,0.387c-0.769,0.3-1.343,0.684-1.723,1.152c-0.38,0.467-0.444,1.048-0.197,1.743
				c0.008,0.021,0.028,0.072,0.06,0.154c0.032,0.083,0.052,0.134,0.06,0.154l-1.077,0.421c-0.008-0.02-0.028-0.071-0.06-0.154
				c-0.032-0.082-0.052-0.133-0.06-0.154c-0.26-0.667-0.633-1.071-1.12-1.212c-0.487-0.141-1.145-0.05-1.976,0.275
				c-0.646,0.252-1.128,0.579-1.443,0.98c-0.317,0.402-0.349,0.925-0.097,1.571c0.244,0.626,0.599,1.011,1.063,1.154
				c0.464,0.144,1.07,0.082,1.816-0.185c0.02-0.008,0.054-0.021,0.1-0.039c0.045-0.018,0.084-0.033,0.115-0.045l0.42,1.077
				l-0.292,0.114c-0.616,0.241-1.183,0.353-1.704,0.337c-0.52-0.016-0.988-0.191-1.402-0.525c-0.414-0.335-0.754-0.841-1.018-1.518
				c-0.256-0.657-0.333-1.247-0.23-1.772c0.102-0.525,0.348-0.978,0.736-1.361c0.388-0.382,0.885-0.691,1.49-0.927
				c0.872-0.34,1.611-0.439,2.216-0.297c0.606,0.142,1.071,0.45,1.399,0.925c-0.038-0.34,0.014-0.69,0.156-1.054
				c0.142-0.363,0.398-0.714,0.768-1.053c0.37-0.339,0.883-0.637,1.54-0.894c0.697-0.272,1.353-0.416,1.969-0.431
				c0.614-0.015,1.155,0.137,1.623,0.457C411.38,132.863,411.752,133.376,412.028,134.084z"/>
			<path style="fill:#263238;" d="M407.442,122.789l-3.647,1.424l1.465,3.754l-1.138,0.444l-9.059-0.542l-0.517-1.323l7.801-3.045
				l-0.559-1.431l1.015-0.396l0.559,1.431l3.647-1.424L407.442,122.789z M403.801,127.224l-1.021-2.616l-6.309,2.462
				L403.801,127.224z"/>
			<path style="fill:#263238;" d="M403.71,112.773c0.244,0.626,0.341,1.191,0.29,1.695c-0.051,0.505-0.254,0.948-0.608,1.328
				c-0.354,0.381-0.847,0.7-1.479,0.958c-0.021,0.008-0.062,0.024-0.123,0.048c-0.062,0.024-0.097,0.038-0.108,0.042l-0.432-1.108
				c0.79-0.308,1.306-0.654,1.546-1.037c0.241-0.384,0.231-0.908-0.03-1.576c-0.136-0.348-0.335-0.617-0.597-0.804
				c-0.262-0.188-0.616-0.271-1.064-0.25c-0.447,0.021-1.004,0.162-1.671,0.422l-2.354,0.919c0.245,0.081,0.509,0.259,0.793,0.533
				c0.284,0.273,0.526,0.666,0.726,1.179c0.268,0.688,0.348,1.277,0.238,1.769c-0.109,0.492-0.407,0.927-0.891,1.305
				c-0.485,0.379-1.158,0.736-2.02,1.073c-0.769,0.3-1.475,0.46-2.117,0.481c-0.642,0.02-1.205-0.127-1.688-0.441
				c-0.483-0.314-0.863-0.824-1.139-1.532c-0.264-0.677-0.322-1.287-0.173-1.83c0.148-0.542,0.474-1.025,0.978-1.446
				c0.504-0.421,1.161-0.79,1.971-1.106l4.97-1.94c0.76-0.297,1.467-0.467,2.124-0.51c0.657-0.044,1.228,0.074,1.714,0.351
				C403.053,111.573,403.434,112.065,403.71,112.773z M397.62,115.204c-0.172-0.441-0.393-0.775-0.665-0.999
				c-0.271-0.225-0.516-0.378-0.737-0.457l-2.139,0.835c-0.677,0.264-1.2,0.537-1.569,0.816c-0.37,0.28-0.599,0.585-0.689,0.916
				c-0.089,0.33-0.056,0.696,0.1,1.096c0.156,0.4,0.382,0.699,0.678,0.897c0.296,0.198,0.665,0.287,1.107,0.268
				c0.442-0.019,0.96-0.144,1.555-0.376c0.687-0.268,1.242-0.529,1.663-0.782c0.421-0.253,0.695-0.552,0.821-0.897
				C397.87,116.176,397.828,115.737,397.62,115.204z"/>
			<path style="fill:#263238;" d="M399.501,101.987c0.244,0.626,0.341,1.191,0.29,1.695c-0.051,0.505-0.254,0.948-0.608,1.328
				c-0.354,0.381-0.847,0.7-1.479,0.958c-0.021,0.008-0.062,0.024-0.123,0.048c-0.062,0.024-0.097,0.038-0.108,0.042l-0.432-1.108
				c0.79-0.308,1.306-0.654,1.546-1.037c0.241-0.384,0.231-0.909-0.03-1.576c-0.136-0.349-0.335-0.617-0.597-0.804
				s-0.616-0.271-1.064-0.25c-0.447,0.021-1.004,0.162-1.67,0.422l-2.354,0.919c0.245,0.081,0.509,0.259,0.793,0.533
				s0.526,0.666,0.726,1.179c0.268,0.687,0.348,1.277,0.238,1.769c-0.109,0.492-0.406,0.927-0.891,1.305
				c-0.485,0.379-1.158,0.736-2.02,1.072c-0.769,0.3-1.475,0.46-2.117,0.481c-0.642,0.02-1.205-0.127-1.688-0.441
				c-0.483-0.314-0.863-0.825-1.139-1.532c-0.264-0.677-0.322-1.287-0.173-1.83c0.149-0.542,0.475-1.025,0.978-1.446
				c0.504-0.421,1.161-0.79,1.971-1.106l4.97-1.94c0.76-0.297,1.467-0.467,2.124-0.51c0.657-0.044,1.228,0.074,1.714,0.351
				C398.843,100.787,399.224,101.279,399.501,101.987z M393.41,104.417c-0.172-0.441-0.393-0.774-0.665-0.999
				c-0.271-0.225-0.516-0.378-0.737-0.457l-2.139,0.835c-0.677,0.264-1.2,0.537-1.569,0.816c-0.37,0.28-0.599,0.585-0.689,0.916
				c-0.089,0.33-0.056,0.696,0.1,1.096c0.156,0.4,0.382,0.699,0.678,0.897c0.296,0.197,0.665,0.287,1.107,0.268
				c0.442-0.018,0.96-0.144,1.555-0.376c0.687-0.268,1.242-0.529,1.663-0.782c0.421-0.253,0.695-0.552,0.821-0.897
				C393.66,105.389,393.618,104.951,393.41,104.417z"/>
			<path style="fill:#263238;" d="M395.254,91.108c0.288,0.738,0.358,1.385,0.208,1.94c-0.15,0.555-0.466,1.033-0.948,1.434
				c-0.482,0.401-1.077,0.739-1.785,1.015l-5.416,2.114c-0.718,0.28-1.389,0.433-2.012,0.458c-0.622,0.024-1.172-0.122-1.651-0.437
				c-0.478-0.315-0.857-0.833-1.137-1.551c-0.288-0.738-0.363-1.383-0.223-1.934c0.14-0.551,0.447-1.028,0.921-1.433
				c0.475-0.404,1.072-0.746,1.79-1.026l5.416-2.114c0.718-0.28,1.391-0.437,2.016-0.468c0.626-0.032,1.18,0.107,1.66,0.416
				C394.576,89.83,394.962,90.359,395.254,91.108z M394.362,91.456c-0.188-0.482-0.454-0.807-0.797-0.975
				c-0.344-0.167-0.739-0.226-1.186-0.175c-0.447,0.05-0.922,0.173-1.425,0.37l-5.585,2.18c-0.503,0.196-0.936,0.428-1.299,0.693
				c-0.364,0.266-0.613,0.573-0.749,0.922c-0.136,0.349-0.108,0.769,0.084,1.261c0.184,0.472,0.446,0.793,0.784,0.962
				c0.338,0.17,0.731,0.229,1.178,0.178c0.447-0.05,0.922-0.174,1.425-0.37l5.585-2.18c0.503-0.196,0.936-0.427,1.299-0.693
				c0.364-0.266,0.613-0.579,0.751-0.94C394.564,92.329,394.542,91.918,394.362,91.456z"/>
		</g>
		<g>
			
				<rect x="393.48" y="209.389" transform="matrix(-0.3636 -0.9316 0.9316 -0.3636 315.3265 695.6334)" style="fill:#263238;" width="3.613" height="61.428"/>
			
				<rect x="383.533" y="183.903" transform="matrix(-0.3636 -0.9316 0.9316 -0.3636 325.5061 651.6151)" style="fill:#263238;" width="3.613" height="61.428"/>
			
				<rect x="381.469" y="178.614" transform="matrix(-0.3636 -0.9316 0.9316 -0.3636 327.6353 642.4813)" style="fill:#263238;" width="3.613" height="61.427"/>
			
				<rect x="375.463" y="163.226" transform="matrix(-0.3636 -0.9316 0.9316 -0.3636 333.7749 615.9031)" style="fill:#263238;" width="3.613" height="61.428"/>
			
				<rect x="364.953" y="136.297" transform="matrix(-0.3636 -0.9316 0.9316 -0.3636 344.5186 569.392)" style="fill:#263238;" width="3.613" height="61.428"/>
			
				<rect x="392.835" y="205.422" transform="matrix(-0.3636 -0.9316 0.9316 -0.3636 316.9258 688.784)" style="fill:#263238;" width="1.807" height="61.428"/>
			
				<rect x="391.522" y="202.056" transform="matrix(-0.3636 -0.9316 0.9316 -0.3636 318.2726 682.9705)" style="fill:#263238;" width="1.807" height="61.427"/>
			
				<rect x="390.208" y="198.69" transform="matrix(-0.3636 -0.9316 0.9316 -0.3636 319.5937 677.153)" style="fill:#263238;" width="1.807" height="61.428"/>
			
				<rect x="369" y="144.352" transform="matrix(-0.3636 -0.9316 0.9316 -0.3636 341.3082 583.3039)" style="fill:#263238;" width="1.807" height="61.428"/>
			
				<rect x="367.686" y="140.986" transform="matrix(-0.3636 -0.9316 0.9316 -0.3636 342.6525 577.4901)" style="fill:#263238;" width="1.807" height="61.428"/>
			
				<rect x="388.894" y="195.324" transform="matrix(-0.3636 -0.9316 0.9316 -0.3636 320.961 671.3428)" style="fill:#263238;" width="1.807" height="61.428"/>
			
				<rect x="387.58" y="191.958" transform="matrix(-0.3636 -0.9316 0.9316 -0.3636 322.3052 665.5289)" style="fill:#263238;" width="1.807" height="61.428"/>
			
				<rect x="374.442" y="158.297" transform="matrix(-0.3636 -0.9316 0.9316 -0.3636 335.7413 607.3898)" style="fill:#263238;" width="1.807" height="61.428"/>
			
				<rect x="373.129" y="154.931" transform="matrix(-0.3636 -0.9316 0.9316 -0.3636 337.0917 601.5766)" style="fill:#263238;" width="1.807" height="61.428"/>
			
				<rect x="371.815" y="151.565" transform="matrix(-0.3636 -0.9316 0.9316 -0.3636 338.4359 595.7628)" style="fill:#263238;" width="1.807" height="61.427"/>
			
				<rect x="380.073" y="172.723" transform="matrix(-0.3636 -0.9316 0.9316 -0.3636 329.9779 632.3059)" style="fill:#263238;" width="1.807" height="61.428"/>
			
				<rect x="378.571" y="168.876" transform="matrix(-0.3636 -0.9316 0.9316 -0.3636 331.525 625.6628)" style="fill:#263238;" width="1.807" height="61.428"/>
			
				<rect x="386.266" y="188.592" transform="matrix(-0.3636 -0.9316 0.9316 -0.3636 323.6429 659.7142)" style="fill:#263238;" width="1.807" height="61.428"/>
			
				<rect x="362.325" y="129.565" transform="matrix(-0.3636 -0.9316 0.9316 -0.3636 347.2174 557.7649)" style="fill:#263238;" width="3.613" height="61.428"/>
			
				<rect x="352.378" y="104.079" transform="matrix(-0.3636 -0.9316 0.9316 -0.3636 357.3953 513.7459)" style="fill:#263238;" width="3.613" height="61.428"/>
			
				<rect x="350.313" y="98.789" transform="matrix(-0.3636 -0.9316 0.9316 -0.3636 359.5077 504.6099)" style="fill:#263238;" width="3.613" height="61.428"/>
			
				<rect x="361.68" y="125.598" transform="matrix(-0.3635 -0.9316 0.9316 -0.3635 348.7774 550.912)" style="fill:#263238;" width="1.807" height="61.428"/>
			
				<rect x="360.366" y="122.232" transform="matrix(-0.3636 -0.9316 0.9316 -0.3636 350.142 545.0989)" style="fill:#263238;" width="1.807" height="61.428"/>
			
				<rect x="359.052" y="118.866" transform="matrix(-0.3636 -0.9316 0.9316 -0.3636 351.4883 539.2852)" style="fill:#263238;" width="1.807" height="61.428"/>
			
				<rect x="357.739" y="115.5" transform="matrix(-0.3636 -0.9316 0.9316 -0.3636 352.8383 533.4714)" style="fill:#263238;" width="1.807" height="61.428"/>
			
				<rect x="341.598" y="74.145" transform="matrix(-0.3636 -0.9316 0.9316 -0.3636 369.3531 462.0441)" style="fill:#263238;" width="1.807" height="61.428"/>
			
				<rect x="340.284" y="70.779" transform="matrix(-0.3636 -0.9316 0.9316 -0.3636 370.6973 456.2302)" style="fill:#263238;" width="1.807" height="61.428"/>
			
				<rect x="356.425" y="112.134" transform="matrix(-0.3636 -0.9316 0.9316 -0.3636 354.1826 527.6576)" style="fill:#263238;" width="1.807" height="61.427"/>
			
				<rect x="355.111" y="108.767" transform="matrix(-0.3636 -0.9316 0.9316 -0.3636 355.5071 521.8438)" style="fill:#263238;" width="1.807" height="61.428"/>
			
				<rect x="344.683" y="84.363" transform="matrix(-0.3636 -0.9316 0.9316 -0.3636 365.2688 479.6935)" style="fill:#263238;" width="3.613" height="61.428"/>
			
				<rect x="342.618" y="79.074" transform="matrix(-0.3636 -0.9316 0.9316 -0.3636 367.3812 470.5575)" style="fill:#263238;" width="3.613" height="61.428"/>
			
				<rect x="348.73" y="92.418" transform="matrix(-0.3636 -0.9316 0.9316 -0.3636 362.0484 493.6053)" style="fill:#263238;" width="1.807" height="61.427"/>
			
				<rect x="347.416" y="89.052" transform="matrix(-0.3635 -0.9316 0.9316 -0.3635 363.3737 487.7922)" style="fill:#263238;" width="1.807" height="61.428"/>
		</g>
		
			<line style="fill:none;stroke:#263238;stroke-linecap:round;stroke-linejoin:round;stroke-miterlimit:10;stroke-dasharray:5,5;" x1="339.55" y1="265.574" x2="282.877" y2="119.771"/>
		<g>
			<g>
				<path style="fill:#92E3A9;" d="M305.588,222.88l-9.681,1.768l-0.794-2.033l8.324-5.246l0.663,1.7l-1.852,1.094l0.555,1.422
					l2.112-0.428L305.588,222.88z M301.616,221.857l-0.421-1.078l-3.421,1.963L301.616,221.857z"/>
				<path style="fill:#92E3A9;" d="M303.107,216.525l-9,3.513l-0.859-2.2c-0.298-0.763-0.431-1.396-0.401-1.898
					c0.03-0.503,0.22-0.925,0.569-1.266c0.349-0.341,0.85-0.639,1.501-0.893l3.278-1.279c0.667-0.26,1.25-0.385,1.749-0.375
					c0.499,0.01,0.932,0.185,1.299,0.524c0.367,0.339,0.696,0.883,0.988,1.631L303.107,216.525z M301.114,215.19l-0.152-0.389
					c-0.133-0.341-0.281-0.563-0.445-0.665c-0.164-0.103-0.358-0.131-0.584-0.086c-0.226,0.046-0.495,0.129-0.806,0.25l-3.711,1.449
					c-0.311,0.121-0.552,0.243-0.722,0.365c-0.17,0.122-0.271,0.272-0.304,0.452c-0.032,0.179,0.015,0.432,0.142,0.758l0.147,0.378
					L301.114,215.19z"/>
				<path style="fill:#92E3A9;" d="M300.635,210.191l-9.061,3.357l-0.759-1.944l5.245-3.327l-6.142,1.027l-0.733-1.878l8.94-3.668
					l0.521,1.334l-6.044,2.525l6.547-1.236l0.447,1.144l-5.676,3.598l6.192-2.276L300.635,210.191z"/>
				<path style="fill:#92E3A9;" d="M297.639,202.513l-9.001,3.513l-0.711-1.822l9.001-3.513L297.639,202.513z"/>
				<path style="fill:#92E3A9;" d="M296.06,198.469l-7.633,2.979l0.542,1.389l-1.367,0.534l-1.795-4.6l1.367-0.534l0.533,1.367
					l7.633-2.979L296.06,198.469z"/>
				<path style="fill:#92E3A9;" d="M292.548,189.11c0.257,0.659,0.342,1.228,0.256,1.705c-0.087,0.478-0.318,0.886-0.694,1.225
					c-0.375,0.339-0.871,0.628-1.486,0.868l-3.356,1.31c-0.615,0.24-1.173,0.362-1.676,0.366c-0.502,0.004-0.943-0.142-1.323-0.438
					c-0.38-0.296-0.699-0.773-0.956-1.432c-0.26-0.667-0.35-1.24-0.268-1.72c0.082-0.48,0.307-0.888,0.675-1.224
					c0.368-0.336,0.86-0.624,1.475-0.864l3.356-1.31c0.615-0.24,1.175-0.363,1.681-0.368c0.506-0.005,0.953,0.14,1.342,0.437
					C291.963,187.962,292.288,188.443,292.548,189.11z M291.226,189.626c-0.092-0.237-0.214-0.39-0.366-0.459
					c-0.151-0.069-0.324-0.087-0.52-0.053c-0.195,0.034-0.397,0.091-0.604,0.172l-4.256,1.661c-0.207,0.081-0.393,0.175-0.556,0.281
					c-0.163,0.106-0.277,0.236-0.341,0.389c-0.064,0.153-0.049,0.348,0.043,0.585c0.087,0.222,0.205,0.368,0.356,0.437
					c0.151,0.069,0.323,0.087,0.514,0.055c0.193-0.032,0.392-0.089,0.599-0.17l4.256-1.661c0.207-0.081,0.395-0.174,0.563-0.277
					c0.169-0.104,0.285-0.233,0.349-0.386C291.328,190.047,291.316,189.856,291.226,189.626z"/>
				<path style="fill:#92E3A9;" d="M290.908,185.269l-9.001,3.513l-0.499-1.278l3.909-3.83l-4.689,1.83l-0.59-1.511l9-3.513
					l0.477,1.222l-4.197,3.943l4.978-1.943L290.908,185.269z"/>
				<path style="fill:#92E3A9;" d="M288.506,179.113l-9,3.513l-1.531-3.922l1.267-0.495l0.815,2.088l2.389-0.932l-0.629-1.611
					l1.278-0.499l0.629,1.611l2.822-1.102l-0.824-2.111l1.244-0.486L288.506,179.113z"/>
			</g>
		</g>
		<g>
			<polygon style="fill:#FFFFFF;stroke:#263238;stroke-miterlimit:10;" points="188.439,220.45 192.308,225.174 197.997,222.954 
				194.699,228.094 198.569,232.818 192.662,231.27 189.365,236.41 189.011,230.314 183.104,228.767 188.792,226.546 			"/>
			<polygon style="fill:#FFFFFF;stroke:#263238;stroke-miterlimit:10;" points="164.298,229.872 168.168,234.596 173.856,232.376 
				170.559,237.516 174.429,242.24 168.522,240.692 165.225,245.832 164.871,239.736 158.964,238.189 164.652,235.968 			"/>
			<polygon style="fill:#FFFFFF;stroke:#263238;stroke-miterlimit:10;" points="140.158,239.294 144.028,244.018 149.716,241.798 
				146.419,246.938 150.289,251.662 144.381,250.114 141.084,255.254 140.731,249.158 134.824,247.611 140.512,245.39 			"/>
			<polygon style="fill:#FFFFFF;stroke:#263238;stroke-miterlimit:10;" points="236.719,201.607 240.589,206.331 246.277,204.11 
				242.98,209.25 246.849,213.974 240.942,212.427 237.645,217.566 237.291,211.47 231.384,209.923 237.073,207.703 			"/>
			<polygon style="fill:#FFFFFF;stroke:#263238;stroke-miterlimit:10;" points="212.579,211.028 216.448,215.752 222.137,213.532 
				218.84,218.672 222.709,223.396 216.802,221.849 213.505,226.988 213.151,220.892 207.244,219.345 212.933,217.124 			"/>
		</g>
		<g>
			<g>
				<path style="fill:#263238;" d="M147.596,324.162l-3.155-8.083l1.976-0.771c0.685-0.267,1.253-0.388,1.704-0.361
					c0.452,0.028,0.831,0.198,1.136,0.511c0.307,0.314,0.574,0.763,0.803,1.349l1.149,2.944c0.234,0.599,0.346,1.122,0.337,1.57
					c-0.008,0.449-0.165,0.837-0.47,1.167c-0.305,0.329-0.793,0.626-1.464,0.888L147.596,324.162z M148.794,322.372l0.349-0.136
					c0.306-0.12,0.505-0.252,0.597-0.4c0.092-0.147,0.118-0.322,0.077-0.525c-0.04-0.202-0.115-0.444-0.224-0.723l-1.301-3.333
					c-0.109-0.279-0.219-0.496-0.328-0.649c-0.11-0.153-0.245-0.243-0.406-0.272c-0.161-0.03-0.388,0.013-0.68,0.127l-0.34,0.132
					L148.794,322.372z"/>
				<path style="fill:#263238;" d="M152.825,322.121l-1.588-8.694l1.826-0.713l4.712,7.475l-1.527,0.596l-0.983-1.663l-1.277,0.498
					l0.384,1.897L152.825,322.121z M153.745,318.555l0.968-0.378l-1.763-3.073L153.745,318.555z"/>
				<path style="fill:#263238;" d="M158.942,319.734l-2.676-6.856l-1.247,0.487l-0.479-1.227l4.132-1.613l0.479,1.227l-1.228,0.479
					l2.676,6.856L158.942,319.734z"/>
				<path style="fill:#263238;" d="M162.555,318.324l-3.155-8.083l3.522-1.375l0.444,1.138l-1.876,0.732l0.837,2.145l1.447-0.565
					l0.448,1.148l-1.447,0.565l0.989,2.535l1.896-0.74l0.436,1.117L162.555,318.324z"/>
				<path style="fill:#263238;" d="M165.367,312.477l-0.561-1.437l1.417-0.553l0.561,1.437L165.367,312.477z M166.722,315.95
					l-0.557-1.427l1.417-0.553l0.557,1.427L166.722,315.95z"/>
				<path style="fill:#263238;" d="M174.173,313.916c-0.512,0.2-0.975,0.249-1.387,0.145c-0.412-0.103-0.771-0.325-1.076-0.667
					c-0.306-0.341-0.559-0.767-0.758-1.279l-1.122-2.874c-0.205-0.526-0.328-1.022-0.368-1.489
					c-0.041-0.467,0.048-0.882,0.267-1.243c0.219-0.362,0.618-0.655,1.197-0.881c0.499-0.195,0.927-0.272,1.284-0.231
					c0.357,0.04,0.662,0.188,0.915,0.442c0.253,0.254,0.466,0.603,0.64,1.049c0.008,0.02,0.018,0.041,0.03,0.063
					c0.012,0.022,0.022,0.043,0.03,0.063l-1.457,0.569c-0.133-0.34-0.264-0.579-0.396-0.72s-0.323-0.161-0.577-0.062
					c-0.159,0.062-0.265,0.16-0.315,0.295c-0.051,0.135-0.049,0.328,0.007,0.578s0.164,0.582,0.325,0.994l0.323,0.828
					c0.03-0.18,0.12-0.346,0.272-0.497c0.152-0.151,0.346-0.277,0.583-0.377c0.421-0.179,0.799-0.217,1.134-0.115
					c0.335,0.103,0.629,0.31,0.881,0.623c0.252,0.312,0.465,0.691,0.639,1.136c0.213,0.546,0.336,1.057,0.369,1.535
					c0.033,0.478-0.062,0.896-0.286,1.256C175.103,313.417,174.719,313.703,174.173,313.916z M173.745,312.76
					c0.166-0.065,0.269-0.169,0.308-0.316c0.039-0.145,0.033-0.327-0.017-0.545c-0.051-0.217-0.133-0.473-0.247-0.765
					c-0.109-0.279-0.213-0.521-0.311-0.724c-0.098-0.203-0.214-0.348-0.347-0.434c-0.134-0.085-0.3-0.09-0.5-0.012
					c-0.093,0.036-0.174,0.089-0.242,0.158c-0.069,0.069-0.123,0.143-0.16,0.223c-0.038,0.079-0.063,0.156-0.072,0.23l0.502,1.287
					c0.078,0.2,0.17,0.38,0.275,0.542c0.105,0.162,0.225,0.278,0.36,0.348C173.428,312.823,173.579,312.825,173.745,312.76z"/>
				<path style="fill:#263238;" d="M176.191,309.655l-0.385-0.988l2.505-0.978l0.385,0.988L176.191,309.655z"/>
				<path style="fill:#263238;" d="M180.837,311.189l-0.424-1.087l0.786-3.792c0.058-0.283,0.112-0.553,0.16-0.809
					c0.049-0.257,0.073-0.51,0.072-0.759c-0.002-0.248-0.05-0.496-0.146-0.742c-0.101-0.259-0.228-0.438-0.381-0.535
					c-0.153-0.097-0.323-0.11-0.509-0.037c-0.2,0.078-0.332,0.193-0.395,0.344c-0.064,0.151-0.08,0.324-0.05,0.52
					c0.03,0.195,0.086,0.399,0.17,0.612l0.148,0.378l-1.507,0.588l-0.156-0.399c-0.187-0.479-0.278-0.934-0.274-1.365
					c0.005-0.431,0.127-0.814,0.368-1.15c0.241-0.335,0.624-0.606,1.149-0.811c0.712-0.278,1.32-0.301,1.825-0.069
					c0.505,0.233,0.888,0.685,1.15,1.356c0.127,0.326,0.195,0.646,0.203,0.961s-0.02,0.633-0.082,0.952
					c-0.063,0.32-0.135,0.652-0.214,0.998l-0.641,2.953l2.405-0.939l0.475,1.217L180.837,311.189z"/>
				<path style="fill:#263238;" d="M188.085,308.52c-0.539,0.211-1.006,0.276-1.401,0.196c-0.395-0.08-0.735-0.276-1.019-0.591
					c-0.283-0.314-0.519-0.711-0.706-1.19l-0.113-0.29l1.536-0.6c0.005,0.014,0.019,0.049,0.041,0.105
					c0.022,0.057,0.044,0.112,0.064,0.165c0.108,0.257,0.214,0.463,0.316,0.619c0.103,0.155,0.218,0.258,0.345,0.308
					c0.126,0.05,0.277,0.042,0.449-0.026c0.18-0.07,0.295-0.168,0.347-0.291c0.051-0.124,0.06-0.279,0.025-0.465
					c-0.034-0.186-0.101-0.405-0.2-0.658c-0.158-0.406-0.34-0.697-0.548-0.873c-0.206-0.177-0.491-0.198-0.852-0.064
					c-0.007,0.003-0.041,0.016-0.1,0.039c-0.06,0.023-0.117,0.046-0.17,0.066l-0.444-1.138c0.04-0.016,0.081-0.032,0.124-0.049
					c0.044-0.017,0.082-0.032,0.115-0.045c0.359-0.14,0.566-0.332,0.62-0.575c0.055-0.244,0.001-0.572-0.161-0.985
					c-0.124-0.319-0.268-0.55-0.432-0.693c-0.163-0.143-0.371-0.166-0.624-0.067c-0.253,0.099-0.38,0.263-0.382,0.494
					c-0.002,0.23,0.054,0.504,0.17,0.819c0.021,0.053,0.043,0.111,0.068,0.175c0.025,0.063,0.048,0.124,0.072,0.184l-1.537,0.6
					l-0.171-0.439c-0.184-0.472-0.255-0.907-0.21-1.303c0.044-0.397,0.193-0.745,0.445-1.042c0.252-0.297,0.607-0.535,1.066-0.714
					c0.46-0.179,0.884-0.25,1.275-0.21c0.391,0.039,0.734,0.185,1.028,0.438c0.294,0.253,0.533,0.616,0.718,1.088
					c0.185,0.473,0.239,0.903,0.166,1.292c-0.074,0.389-0.238,0.683-0.49,0.881c0.226-0.011,0.445,0.029,0.657,0.123
					c0.212,0.093,0.412,0.251,0.599,0.474c0.187,0.222,0.354,0.523,0.502,0.902c0.19,0.486,0.288,0.944,0.295,1.374
					c0.007,0.431-0.107,0.815-0.344,1.152C188.992,308.044,188.611,308.315,188.085,308.52z"/>
				<path style="fill:#263238;" d="M190.001,304.265l-0.385-0.988l2.505-0.978l0.385,0.988L190.001,304.265z"/>
				<path style="fill:#263238;" d="M194.647,305.798l-0.424-1.087l0.786-3.792c0.058-0.283,0.112-0.553,0.16-0.809
					c0.049-0.257,0.073-0.51,0.072-0.759c-0.001-0.248-0.05-0.496-0.146-0.742c-0.101-0.259-0.228-0.438-0.381-0.535
					c-0.153-0.097-0.323-0.11-0.509-0.037c-0.2,0.078-0.332,0.193-0.395,0.344c-0.064,0.151-0.08,0.324-0.05,0.52
					c0.03,0.195,0.086,0.399,0.17,0.612l0.148,0.378l-1.506,0.588l-0.156-0.399c-0.187-0.479-0.278-0.934-0.274-1.365
					c0.005-0.431,0.127-0.814,0.368-1.15c0.241-0.335,0.624-0.606,1.149-0.811c0.712-0.278,1.32-0.301,1.825-0.068
					c0.505,0.233,0.888,0.685,1.15,1.356c0.127,0.327,0.195,0.646,0.203,0.961c0.008,0.315-0.02,0.633-0.082,0.952
					c-0.063,0.32-0.135,0.652-0.214,0.998l-0.641,2.953l2.405-0.939l0.475,1.217L194.647,305.798z"/>
				<path style="fill:#263238;" d="M201.897,303.13c-0.539,0.21-1.006,0.276-1.401,0.196c-0.395-0.08-0.735-0.276-1.019-0.591
					c-0.284-0.314-0.519-0.711-0.706-1.19l-0.113-0.29l1.536-0.6c0.005,0.014,0.019,0.049,0.041,0.105
					c0.022,0.057,0.044,0.112,0.064,0.165c0.108,0.257,0.214,0.463,0.316,0.619c0.103,0.155,0.217,0.258,0.345,0.308
					c0.126,0.05,0.276,0.042,0.449-0.026c0.179-0.07,0.295-0.168,0.347-0.291c0.051-0.124,0.06-0.279,0.025-0.465
					c-0.034-0.186-0.101-0.405-0.2-0.658c-0.158-0.406-0.34-0.697-0.547-0.873c-0.207-0.177-0.491-0.198-0.852-0.064
					c-0.007,0.003-0.041,0.016-0.1,0.039c-0.06,0.024-0.117,0.046-0.17,0.066l-0.444-1.138c0.04-0.016,0.081-0.032,0.124-0.049
					c0.044-0.017,0.082-0.032,0.115-0.045c0.359-0.14,0.566-0.332,0.62-0.575c0.055-0.244,0-0.572-0.161-0.984
					c-0.125-0.319-0.268-0.55-0.432-0.693c-0.163-0.143-0.371-0.166-0.624-0.067c-0.253,0.099-0.38,0.263-0.382,0.494
					c-0.002,0.23,0.054,0.504,0.17,0.819c0.021,0.053,0.044,0.111,0.068,0.175c0.025,0.063,0.048,0.124,0.072,0.184l-1.536,0.6
					l-0.172-0.439c-0.184-0.472-0.255-0.907-0.21-1.303c0.044-0.397,0.193-0.745,0.445-1.042c0.252-0.298,0.607-0.535,1.066-0.714
					c0.46-0.18,0.884-0.25,1.275-0.21c0.391,0.039,0.734,0.185,1.028,0.438s0.533,0.615,0.718,1.088
					c0.184,0.473,0.239,0.903,0.166,1.292c-0.075,0.389-0.238,0.683-0.49,0.881c0.226-0.011,0.445,0.03,0.657,0.123
					c0.212,0.093,0.412,0.251,0.599,0.474c0.187,0.222,0.354,0.523,0.502,0.902c0.19,0.486,0.288,0.944,0.295,1.374
					c0.007,0.43-0.107,0.815-0.344,1.152C202.803,302.653,202.422,302.924,201.897,303.13z"/>
			</g>
			<g>
				<path style="fill:#263238;" d="M216.92,297.105l-3.155-8.083l2.095-0.818c0.546-0.213,1.037-0.333,1.475-0.363
					c0.437-0.028,0.821,0.073,1.152,0.303c0.332,0.231,0.606,0.622,0.821,1.174c0.13,0.333,0.217,0.639,0.26,0.917
					c0.043,0.278,0.03,0.54-0.039,0.785c-0.069,0.246-0.211,0.475-0.426,0.69l2.656,3.506l-1.686,0.658l-2.358-3.3l-0.579,0.226
					l1.43,3.663L216.92,297.105z M216.755,291.822l0.479-0.187c0.266-0.104,0.459-0.229,0.578-0.375
					c0.119-0.146,0.176-0.319,0.17-0.52c-0.005-0.201-0.059-0.431-0.16-0.691c-0.145-0.373-0.325-0.63-0.538-0.774
					c-0.213-0.142-0.505-0.141-0.878,0.004l-0.559,0.218L216.755,291.822z"/>
				<path style="fill:#263238;" d="M224.976,294.087c-0.593,0.231-1.103,0.308-1.532,0.23c-0.429-0.078-0.796-0.286-1.099-0.623
					c-0.305-0.338-0.564-0.782-0.78-1.334l-1.176-3.014c-0.215-0.552-0.325-1.054-0.328-1.505c-0.004-0.451,0.127-0.847,0.393-1.188
					c0.265-0.341,0.694-0.627,1.287-0.859c0.598-0.234,1.114-0.314,1.545-0.241c0.431,0.073,0.797,0.276,1.099,0.606
					c0.302,0.33,0.561,0.772,0.776,1.324l1.176,3.014c0.215,0.552,0.326,1.055,0.33,1.51c0.005,0.454-0.126,0.856-0.392,1.205
					C226.007,293.562,225.574,293.854,224.976,294.087z M224.512,292.9c0.213-0.083,0.35-0.192,0.412-0.327
					c0.062-0.136,0.078-0.292,0.048-0.468c-0.03-0.175-0.082-0.356-0.155-0.543l-1.492-3.822c-0.073-0.186-0.156-0.353-0.252-0.5
					c-0.096-0.147-0.212-0.249-0.35-0.306c-0.138-0.058-0.312-0.045-0.525,0.038c-0.2,0.078-0.331,0.184-0.393,0.32
					c-0.062,0.136-0.079,0.289-0.05,0.462c0.029,0.173,0.08,0.353,0.152,0.539l1.492,3.822c0.073,0.187,0.156,0.355,0.25,0.506
					c0.094,0.151,0.21,0.256,0.346,0.314C224.134,292.992,224.306,292.98,224.512,292.9z"/>
				<path style="fill:#263238;" d="M229.154,292.33l-4.203-7.674l1.398-0.546l2.486,4.721l-1.216-5.206l1.108-0.432l2.659,4.631
					l-1.365-5.148l1.376-0.537l2.117,8.488l-1.397,0.545l-2.787-4.812l1.25,5.411L229.154,292.33z"/>
				<path style="fill:#263238;" d="M233.862,285.743l-0.561-1.437l1.417-0.553l0.561,1.437L233.862,285.743z M235.218,289.216
					l-0.557-1.427l1.417-0.553l0.557,1.427L235.218,289.216z"/>
				<path style="fill:#263238;" d="M242.646,287.064l-0.736-1.886l-2.455,0.958l-0.471-1.208l0.158-5.811l1.796-0.701l1.959,5.02
					l0.778-0.304l0.46,1.178l-0.778,0.304l0.736,1.886L242.646,287.064z M240.213,284.484l1.238-0.483l-1.34-3.433L240.213,284.484z
					"/>
			</g>
			<g>
				<path style="fill:#263238;" d="M257.896,281.239c-0.499,0.195-0.95,0.265-1.355,0.212c-0.404-0.053-0.763-0.231-1.077-0.534
					c-0.314-0.302-0.596-0.735-0.845-1.297l1.324-0.793c0.143,0.327,0.286,0.591,0.43,0.792c0.143,0.201,0.295,0.333,0.454,0.397
					c0.159,0.064,0.326,0.063,0.499-0.005c0.213-0.083,0.331-0.206,0.356-0.369c0.024-0.163,0.004-0.331-0.064-0.504
					c-0.133-0.34-0.325-0.592-0.577-0.758c-0.253-0.165-0.557-0.313-0.915-0.442l-1.122-0.401c-0.398-0.136-0.754-0.326-1.068-0.572
					c-0.315-0.245-0.563-0.6-0.745-1.066c-0.26-0.665-0.264-1.251-0.014-1.759c0.25-0.508,0.715-0.894,1.393-1.159
					c0.406-0.159,0.765-0.222,1.076-0.19c0.312,0.032,0.582,0.131,0.813,0.298c0.23,0.167,0.425,0.371,0.583,0.612
					c0.16,0.241,0.296,0.488,0.411,0.743l-1.325,0.759c-0.11-0.241-0.216-0.449-0.318-0.624c-0.103-0.174-0.22-0.298-0.351-0.369
					c-0.132-0.071-0.287-0.071-0.467-0.001c-0.193,0.076-0.308,0.203-0.345,0.382c-0.038,0.179-0.022,0.356,0.045,0.529
					c0.112,0.286,0.267,0.496,0.469,0.628c0.201,0.132,0.454,0.254,0.758,0.365l1.098,0.4c0.454,0.161,0.875,0.381,1.264,0.662
					c0.39,0.281,0.692,0.697,0.908,1.25c0.148,0.379,0.195,0.756,0.141,1.129c-0.053,0.374-0.2,0.707-0.442,1.001
					C258.646,280.847,258.315,281.075,257.896,281.239z"/>
				<path style="fill:#263238;" d="M260.667,280.03l-3.155-8.083l3.522-1.375l0.444,1.138l-1.876,0.732l0.837,2.145l1.447-0.565
					l0.448,1.148l-1.447,0.565l0.989,2.535l1.896-0.74l0.436,1.117L260.667,280.03z"/>
				<path style="fill:#263238;" d="M264.639,278.481l-1.588-8.694l1.827-0.713l4.711,7.475l-1.527,0.596l-0.983-1.663l-1.277,0.498
					l0.384,1.897L264.639,278.481z M265.558,274.914l0.968-0.378l-1.763-3.073L265.558,274.914z"/>
				<path style="fill:#263238;" d="M270.755,276.093l-2.676-6.856l-1.247,0.487l-0.479-1.227l4.132-1.613l0.479,1.227l-1.228,0.479
					l2.676,6.856L270.755,276.093z"/>
				<path style="fill:#263238;" d="M272.81,270.542l-0.561-1.437l1.417-0.553l0.561,1.437L272.81,270.542z M274.165,274.015
					l-0.557-1.427l1.417-0.553l0.557,1.427L274.165,274.015z"/>
				<path style="fill:#263238;" d="M279.268,272.771l-0.424-1.087l0.786-3.792c0.058-0.283,0.112-0.553,0.16-0.809
					c0.049-0.257,0.073-0.51,0.072-0.759c-0.001-0.248-0.05-0.496-0.146-0.742c-0.101-0.259-0.228-0.438-0.381-0.535
					c-0.153-0.098-0.323-0.11-0.509-0.037c-0.2,0.078-0.332,0.193-0.395,0.344c-0.064,0.151-0.08,0.324-0.05,0.52
					c0.03,0.195,0.086,0.399,0.17,0.612l0.148,0.379l-1.507,0.588l-0.156-0.399c-0.187-0.479-0.278-0.934-0.274-1.365
					c0.005-0.431,0.127-0.814,0.368-1.15c0.241-0.335,0.624-0.605,1.149-0.811c0.712-0.278,1.32-0.301,1.825-0.069
					c0.504,0.233,0.888,0.685,1.15,1.356c0.127,0.327,0.195,0.646,0.203,0.961c0.008,0.315-0.02,0.633-0.082,0.952
					c-0.063,0.32-0.135,0.652-0.214,0.998l-0.641,2.953l2.405-0.938l0.475,1.217L279.268,272.771z"/>
				<path style="fill:#263238;" d="M286.513,269.943l-0.736-1.886l-2.455,0.958l-0.471-1.208l0.158-5.812l1.796-0.701l1.959,5.02
					l0.778-0.304l0.46,1.178l-0.778,0.304l0.736,1.886L286.513,269.943z M284.08,267.363l1.238-0.483l-1.34-3.433L284.08,267.363z"
					/>
			</g>
		</g>
		<g>
			<g>
				<path style="fill:#263238;" d="M133.178,238.261l-13.165-35.533l8.366-3.265l11.889,19.01l-3.827-22.156l8.061-3.146
					l14.385,35.057l-5.534,2.16l-9.82-23.231l5.07,25.085l-4.924,1.922l-13.592-21.96l8.712,23.865L133.178,238.261z"/>
				<path style="fill:#263238;" d="M174.298,222.814c-2.644,1.032-4.917,1.383-6.819,1.055c-1.903-0.328-3.528-1.234-4.876-2.716
					c-1.349-1.482-2.493-3.428-3.434-5.84l-5.119-13.116c-0.952-2.44-1.429-4.647-1.43-6.622c-0.001-1.975,0.59-3.72,1.773-5.236
					c1.182-1.516,3.095-2.79,5.739-3.822c2.672-1.043,4.964-1.41,6.876-1.102c1.91,0.309,3.535,1.19,4.872,2.643
					c1.337,1.454,2.482,3.4,3.434,5.84l5.119,13.116c0.941,2.411,1.417,4.619,1.43,6.622c0.012,2.004-0.578,3.774-1.768,5.31
					C178.902,220.481,176.97,221.771,174.298,222.814z M172.138,217.28c0.813-0.317,1.329-0.753,1.548-1.307
					c0.219-0.554,0.262-1.173,0.129-1.858c-0.134-0.684-0.33-1.36-0.591-2.029l-6.633-16.994c-0.272-0.697-0.588-1.335-0.948-1.915
					c-0.36-0.579-0.809-0.998-1.345-1.258c-0.536-0.259-1.212-0.23-2.025,0.087c-0.756,0.295-1.243,0.719-1.461,1.273
					c-0.219,0.555-0.265,1.167-0.137,1.836c0.128,0.67,0.327,1.353,0.6,2.05l6.633,16.994c0.261,0.668,0.567,1.302,0.918,1.901
					c0.351,0.6,0.787,1.032,1.309,1.297C170.657,217.624,171.324,217.598,172.138,217.28z"/>
				<path style="fill:#263238;" d="M193.876,214.57l-20.137-32.812l6.667-2.602l13.145,22.486l-5.825-25.343l7.059-2.755
					l7.327,37.812L193.876,214.57z"/>
				<path style="fill:#263238;" d="M212.133,207.445l-13.775-35.295l7.8-3.045l13.775,35.295L212.133,207.445z"/>
				<path style="fill:#263238;" d="M225.205,202.342l-13.775-35.295l15.861-6.191l2.075,5.316l-8.062,3.146l3.418,8.758l6.144-2.398
					l2.109,5.403l-6.144,2.398l4.116,10.545l8.149-3.18l2.058,5.272L225.205,202.342z"/>
			</g>
			<g>
				<path style="fill:#263238;" d="M157.396,297.091l-13.776-35.295l5.49-2.143l13.866,14.171l-6.633-16.994l6.449-2.517
					l13.775,35.295l-5.272,2.058l-14.376-15.478l7.143,18.301L157.396,297.091z"/>
				<path style="fill:#263238;" d="M181.883,287.534l-13.776-35.295l7.8-3.044l13.775,35.295L181.883,287.534z"/>
				<path style="fill:#263238;" d="M204.354,279.366c-2.44,0.952-4.563,1.195-6.369,0.728c-1.806-0.466-3.366-1.505-4.682-3.119
					c-1.316-1.611-2.443-3.623-3.385-6.035l-4.626-11.852c-0.975-2.498-1.501-4.787-1.575-6.867
					c-0.076-2.079,0.468-3.924,1.631-5.533c1.163-1.608,3.081-2.934,5.753-3.978c2.615-1.02,4.839-1.387,6.676-1.099
					c1.836,0.288,3.374,1.077,4.614,2.367c1.24,1.291,2.263,2.966,3.067,5.029l0.884,2.266l-7.625,2.976l-1.122-2.876
					c-0.295-0.755-0.618-1.432-0.969-2.032c-0.351-0.599-0.785-1.025-1.301-1.275c-0.517-0.25-1.181-0.216-1.994,0.101
					c-0.843,0.329-1.365,0.792-1.567,1.389c-0.202,0.598-0.223,1.251-0.064,1.958c0.159,0.709,0.381,1.426,0.664,2.152l6.378,16.34
					c0.306,0.784,0.673,1.487,1.098,2.107c0.426,0.621,0.932,1.059,1.518,1.315c0.585,0.257,1.271,0.232,2.055-0.074
					c0.813-0.317,1.352-0.779,1.618-1.385c0.266-0.606,0.349-1.291,0.252-2.056c-0.098-0.766-0.3-1.54-0.606-2.324l-1.616-4.139
					l-3.181,1.241l-1.786-4.575l10.196-3.98l7.143,18.301l-5.142,2.007l-1.575-2.75c-0.079,1.17-0.442,2.256-1.087,3.262
					C206.986,277.963,205.893,278.766,204.354,279.366z"/>
				<path style="fill:#263238;" d="M220.445,272.483l-13.775-35.295l7.8-3.044l5.578,14.292l5.447-2.126l-5.578-14.292l7.843-3.061
					l13.776,35.295l-7.843,3.061l-6.02-15.425l-5.447,2.126l6.02,15.425L220.445,272.483z"/>
				<path style="fill:#263238;" d="M250.076,260.919l-11.514-29.5l-5.316,2.075l-2.262-5.795l18.432-7.194l2.262,5.795l-5.273,2.058
					l11.514,29.499L250.076,260.919z"/>
			</g>
		</g>
	</g>
</g>
</svg>
